<svg xmlns="http://www.w3.org/2000/svg" xmlns:xlink="http://www.w3.org/1999/xlink" width="18" height="18">
  <defs>
    <path id="a" d="M11.302.684A2.287 2.287 0 0 0 9.674.01c-.614 0-1.192.24-1.627.674L3.085 5.645c-.308.308-.47.697-.46 1.097.012.374.175.737.46 1.022.282.283.659.439 1.06.439.4 0 .776-.156 1.059-.439l2.661-2.662a.584.584 0 1 0-.826-.826L4.377 6.937a.336.336 0 0 1-.465 0 .358.358 0 0 1-.117-.229c-.002-.077.037-.156.117-.235l4.961-4.962a1.161 1.161 0 0 1 1.603 0c.441.442.441 1.161 0 1.603L4.66 8.928a2.05 2.05 0 0 1-2.894 0 2.049 2.049 0 0 1 0-2.894L5.902 1.9a.584.584 0 1 0-.827-.827L.94 5.207a3.22 3.22 0 0 0 0 4.548c.626.627 1.45.94 2.274.94.824 0 1.647-.313 2.274-.94l5.814-5.814a2.306 2.306 0 0 0 0-3.257z"/>
  </defs>
  <g fill="none" fill-rule="evenodd">
    <path fill="#1B324B" d="M0 0h18v18H0z"/>
    <path d="M0 0h18v18H0z"/>
    <g transform="translate(3 3.75)">
      <mask id="b" fill="#fff">
        <use xlink:href="#a"/>
      </mask>
      <use fill="#000" fill-rule="nonzero" xlink:href="#a"/>
      <g fill="#FFF" mask="url(#b)">
        <path d="M0-.75h12v12H0z"/>
      </g>
    </g>
  </g>
</svg>
