<svg width="24" height="24" xmlns="http://www.w3.org/2000/svg">
  <path d="M0 1.778C0 .796.796 0 1.778 0h20.444C23.204 0 24 .796 24 1.778v20.444c0 .982-.796 1.778-1.778 1.778H1.778A1.778 1.778 0 0 1 0 22.222V1.778zM3.556 4c0-.245.199-.444.444-.444h2.667c.245 0 .444.199.444.444v2.667a.444.444 0 0 1-.444.444H4a.444.444 0 0 1-.444-.444V4zm4.888-.444A.444.444 0 0 0 8 4v2.667c0 .245.199.444.444.444h2.667a.444.444 0 0 0 .445-.444V4a.444.444 0 0 0-.445-.444H8.444zm4 .444c0-.245.2-.444.445-.444h2.667c.245 0 .444.199.444.444v2.667a.444.444 0 0 1-.444.444h-2.667a.444.444 0 0 1-.445-.444V4zM4 8a.444.444 0 0 0-.444.444v2.667c0 .246.199.445.444.445h2.667a.444.444 0 0 0 .444-.445V8.444A.444.444 0 0 0 6.667 8H4zm4 .444C8 8.2 8.199 8 8.444 8h2.667c.246 0 .445.199.445.444v2.667a.444.444 0 0 1-.445.445H8.444A.444.444 0 0 1 8 11.11V8.444zM17.333 8a.444.444 0 0 0-.444.444v2.667c0 .246.199.445.444.445H20a.444.444 0 0 0 .444-.445V8.444A.444.444 0 0 0 20 8h-2.667zM3.556 12.889c0-.246.199-.445.444-.445h2.667c.245 0 .444.2.444.445v2.667a.444.444 0 0 1-.444.444H4a.444.444 0 0 1-.444-.444v-2.667zm9.333-.445a.444.444 0 0 0-.445.445v2.667c0 .245.2.444.445.444h2.667a.444.444 0 0 0 .444-.444v-2.667a.444.444 0 0 0-.444-.445h-2.667zm4 .445c0-.246.199-.445.444-.445H20c.245 0 .444.2.444.445v2.667A.444.444 0 0 1 20 16h-2.667a.444.444 0 0 1-.444-.444v-2.667zm-8.445 4a.444.444 0 0 0-.444.444V20c0 .245.199.444.444.444h2.667a.444.444 0 0 0 .445-.444v-2.667a.444.444 0 0 0-.445-.444H8.444zm4 .444c0-.245.2-.444.445-.444h2.667c.245 0 .444.199.444.444V20a.444.444 0 0 1-.444.444h-2.667a.444.444 0 0 1-.445-.444v-2.667zm4.89-.444a.444.444 0 0 0-.445.444V20c0 .245.199.444.444.444H20a.444.444 0 0 0 .444-.444v-2.667c0-.245-.2-.443-.444-.443h-2.667l.001-.001z" fill="#0B63CE" fill-rule="evenodd"/>
</svg>
