<svg width="96" height="96" xmlns="http://www.w3.org/2000/svg" xmlns:xlink="http://www.w3.org/1999/xlink">
    <defs>
        <path id="a" d="M.027.015h3.091v3.092H.027z"/>
        <path id="c" d="M.027.015h3.091v3.092H.027z"/>
    </defs>
    <g fill="none" fill-rule="evenodd">
        <circle fill="#E6E6EB" fill-rule="nonzero" cx="48" cy="48" r="48"/>
        <path d="M84.783 30.666l-.219-.871a.415.415 0 0 0-.291-.292l-.872-.22a.096.096 0 0 1 0-.183l.872-.22a.415.415 0 0 0 .291-.291l.22-.872a.096.096 0 0 1 .184 0l.219.872c.038.142.15.253.291.292l.872.219a.096.096 0 0 1 0 .184l-.872.219a.415.415 0 0 0-.291.292l-.22.871a.096.096 0 0 1-.184 0M66.351 16.458l-.219-.871a.415.415 0 0 0-.291-.292l-.872-.22a.096.096 0 0 1 0-.183l.872-.22a.415.415 0 0 0 .291-.291l.22-.872a.096.096 0 0 1 .184 0l.219.872c.038.142.15.253.291.292l.872.219a.096.096 0 0 1 0 .184l-.872.219a.415.415 0 0 0-.291.292l-.22.871a.096.096 0 0 1-.184 0M21.807 21.45l-.219-.871a.415.415 0 0 0-.291-.292l-.872-.22a.096.096 0 0 1 0-.183l.872-.22a.415.415 0 0 0 .291-.291l.22-.872a.096.096 0 0 1 .184 0l.219.872c.038.142.15.253.291.292l.872.219a.096.096 0 0 1 0 .184l-.872.219a.415.415 0 0 0-.291.292l-.22.871a.096.096 0 0 1-.184 0M80.943 51.786l-.219-.871a.415.415 0 0 0-.291-.292l-.872-.22a.096.096 0 0 1 0-.183l.872-.22a.415.415 0 0 0 .291-.291l.22-.872a.096.096 0 0 1 .184 0l.219.872c.038.142.15.253.291.292l.872.219a.096.096 0 0 1 0 .184l-.872.219a.415.415 0 0 0-.291.292l-.22.871a.096.096 0 0 1-.184 0M22.191 68.682l-.219-.871a.415.415 0 0 0-.291-.292l-.872-.22a.096.096 0 0 1 0-.183l.872-.22a.415.415 0 0 0 .291-.291l.22-.872a.096.096 0 0 1 .184 0l.219.872c.038.142.15.253.291.292l.872.219a.096.096 0 0 1 0 .184l-.872.219a.415.415 0 0 0-.291.292l-.22.871a.096.096 0 0 1-.184 0M17.967 57.162l-.219-.871a.415.415 0 0 0-.291-.292l-.872-.22a.096.096 0 0 1 0-.183l.872-.22a.415.415 0 0 0 .291-.291l.22-.872a.096.096 0 0 1 .184 0l.219.872c.038.142.15.253.291.292l.872.219a.096.096 0 0 1 0 .184l-.872.219a.415.415 0 0 0-.291.292l-.22.871a.096.096 0 0 1-.184 0M45.231 53.322l-.219-.871a.415.415 0 0 0-.291-.292l-.872-.22a.096.096 0 0 1 0-.183l.872-.22a.415.415 0 0 0 .291-.291l.22-.872a.096.096 0 0 1 .184 0l.219.872c.038.142.15.253.291.292l.872.219a.096.096 0 0 1 0 .184l-.872.219a.415.415 0 0 0-.291.292l-.22.871a.096.096 0 0 1-.184 0M15.28 40.266l-.22-.871a.415.415 0 0 0-.291-.292l-.872-.22a.096.096 0 0 1 0-.183l.872-.22a.415.415 0 0 0 .291-.291l.22-.872a.096.096 0 0 1 .184 0l.219.872c.038.142.15.253.291.292l.872.219a.096.096 0 0 1 0 .184l-.872.219a.415.415 0 0 0-.291.292l-.22.871a.096.096 0 0 1-.184 0M75.183 73.29l-.219-.871a.415.415 0 0 0-.291-.292l-.872-.22a.096.096 0 0 1 0-.183l.872-.22a.415.415 0 0 0 .291-.291l.22-.872a.096.096 0 0 1 .184 0l.219.872c.038.142.15.253.291.292l.872.219a.096.096 0 0 1 0 .184l-.872.219a.415.415 0 0 0-.291.292l-.22.871a.096.096 0 0 1-.184 0M60.975 46.026l-.219-.871a.415.415 0 0 0-.291-.292l-.872-.22a.096.096 0 0 1 0-.183l.872-.22a.415.415 0 0 0 .291-.291l.22-.872a.096.096 0 0 1 .184 0l.219.872c.038.142.15.253.291.292l.872.219a.096.096 0 0 1 0 .184l-.872.219a.415.415 0 0 0-.291.292l-.22.871a.096.096 0 0 1-.184 0" fill="#7B7C8E" fill-rule="nonzero"/>
        <g transform="translate(41.088 9.984)">
            <mask id="b" fill="#fff">
                <use xlink:href="#a"/>
            </mask>
            <g mask="url(#b)">
                <mask id="d" fill="#fff">
                    <use xlink:href="#c"/>
                </mask>
                <path d="M1.482 3.034l-.222-.872a.384.384 0 0 0-.292-.288L.096 1.65a.092.092 0 0 1 0-.18l.872-.223A.407.407 0 0 0 1.26.956l.222-.872a.092.092 0 0 1 .18 0l.223.872c.033.146.147.26.292.292l.872.223a.092.092 0 0 1 0 .18l-.872.223a.384.384 0 0 0-.292.288l-.222.872a.092.092 0 0 1-.18 0" fill="#7B7C8E" fill-rule="nonzero" mask="url(#d)"/>
            </g>
        </g>
        <path d="M37.935 34.122l-.219-.871a.415.415 0 0 0-.291-.292l-.872-.22a.096.096 0 0 1 0-.183l.872-.22a.415.415 0 0 0 .291-.291l.22-.872a.096.096 0 0 1 .184 0l.219.872c.038.142.15.253.291.292l.872.219a.096.096 0 0 1 0 .184l-.872.219a.415.415 0 0 0-.291.292l-.22.871a.096.096 0 0 1-.184 0M64.047 89.034l-.219-.871a.415.415 0 0 0-.291-.292l-.872-.22a.096.096 0 0 1 0-.183l.872-.22a.415.415 0 0 0 .291-.291l.22-.872a.096.096 0 0 1 .184 0l.219.872c.038.142.15.253.291.292l.872.219a.096.096 0 0 1 0 .184l-.872.219a.415.415 0 0 0-.291.292l-.22.871a.096.096 0 0 1-.184 0M33.327 87.114l-.219-.871a.415.415 0 0 0-.291-.292l-.872-.22a.096.096 0 0 1 0-.183l.872-.22a.415.415 0 0 0 .291-.291l.22-.872a.096.096 0 0 1 .184 0l.219.872c.038.142.15.253.291.292l.872.219a.096.096 0 0 1 0 .184l-.872.219a.415.415 0 0 0-.291.292l-.22.871a.096.096 0 0 1-.184 0" fill="#7B7C8E" fill-rule="nonzero"/>
        <path d="M81.746 19.546l-.108-.434a.204.204 0 0 0-.146-.142l-.433-.112a.046.046 0 0 1 0-.088l.433-.111a.2.2 0 0 0 .146-.146l.108-.43a.05.05 0 0 1 .092 0l.108.43a.2.2 0 0 0 .146.146l.433.11a.046.046 0 0 1 0 .09l-.433.11a.204.204 0 0 0-.146.143l-.108.434a.046.046 0 0 1-.092 0M85.586 42.586l-.108-.434a.204.204 0 0 0-.146-.142l-.433-.112a.046.046 0 0 1 0-.088l.433-.111a.2.2 0 0 0 .146-.146l.108-.43a.05.05 0 0 1 .092 0l.108.43a.2.2 0 0 0 .146.146l.433.11a.046.046 0 0 1 0 .09l-.433.11a.204.204 0 0 0-.146.143l-.108.434a.046.046 0 0 1-.092 0M85.586 65.626l-.108-.434a.204.204 0 0 0-.146-.142l-.433-.112a.046.046 0 0 1 0-.088l.433-.111a.2.2 0 0 0 .146-.146l.108-.43a.046.046 0 0 1 .092 0l.108.43a.2.2 0 0 0 .146.146l.433.11a.046.046 0 0 1 0 .09l-.433.11a.204.204 0 0 0-.146.143l-.108.434a.046.046 0 0 1-.092 0M74.066 80.986l-.108-.434a.204.204 0 0 0-.146-.142l-.433-.112a.046.046 0 0 1 0-.088l.433-.111a.2.2 0 0 0 .146-.146l.108-.43a.046.046 0 0 1 .092 0l.108.43a.2.2 0 0 0 .146.146l.433.11a.046.046 0 0 1 0 .09l-.433.11a.204.204 0 0 0-.146.143l-.108.434a.046.046 0 0 1-.092 0M47.186 88.666l-.108-.434a.204.204 0 0 0-.146-.142l-.433-.112a.046.046 0 0 1 0-.088l.433-.111a.2.2 0 0 0 .146-.146l.108-.43a.046.046 0 0 1 .092 0l.108.43a.2.2 0 0 0 .146.146l.433.11a.046.046 0 0 1 0 .09l-.433.11a.204.204 0 0 0-.146.143l-.108.434a.046.046 0 0 1-.092 0M24.146 77.146l-.108-.434a.204.204 0 0 0-.146-.142l-.433-.112a.046.046 0 0 1 0-.088l.433-.111a.2.2 0 0 0 .146-.146l.108-.43a.046.046 0 0 1 .092 0l.108.43a.2.2 0 0 0 .146.146l.433.11a.046.046 0 0 1 0 .09l-.433.11a.204.204 0 0 0-.146.143l-.108.434a.05.05 0 0 1-.092 0M8.786 61.786l-.108-.434a.204.204 0 0 0-.146-.142l-.433-.112a.046.046 0 0 1 0-.088l.433-.111a.2.2 0 0 0 .146-.146l.108-.43a.05.05 0 0 1 .092 0l.108.43a.2.2 0 0 0 .146.146l.433.11a.046.046 0 0 1 0 .09l-.433.11a.204.204 0 0 0-.146.143l-.108.434a.046.046 0 0 1-.092 0M12.626 31.066l-.108-.434a.204.204 0 0 0-.146-.142l-.433-.112a.046.046 0 0 1 0-.088l.433-.111a.2.2 0 0 0 .146-.146l.108-.43a.046.046 0 0 1 .092 0l.108.43a.2.2 0 0 0 .146.146l.433.11a.046.046 0 0 1 0 .09l-.433.11a.204.204 0 0 0-.146.143l-.108.434a.05.05 0 0 1-.092 0M27.986 19.546l-.108-.434a.204.204 0 0 0-.146-.142l-.433-.112a.046.046 0 0 1 0-.088l.433-.111a.2.2 0 0 0 .146-.146l.108-.43a.046.046 0 0 1 .092 0l.108.43a.2.2 0 0 0 .146.146l.433.11a.046.046 0 0 1 0 .09l-.433.11a.204.204 0 0 0-.146.143l-.108.434a.046.046 0 0 1-.092 0M43.346 4.186l-.108-.434a.204.204 0 0 0-.146-.142l-.433-.112a.046.046 0 0 1 0-.088l.433-.111a.2.2 0 0 0 .146-.146l.108-.43a.046.046 0 0 1 .092 0l.108.43a.2.2 0 0 0 .146.146l.433.11a.046.046 0 0 1 0 .09l-.433.11a.204.204 0 0 0-.146.143l-.108.434a.05.05 0 0 1-.092 0M62.546 19.546l-.108-.434a.204.204 0 0 0-.146-.142l-.433-.112a.046.046 0 0 1 0-.088l.433-.111a.2.2 0 0 0 .146-.146l.108-.43a.05.05 0 0 1 .092 0l.108.43a.2.2 0 0 0 .146.146l.433.11a.046.046 0 0 1 0 .09l-.433.11a.204.204 0 0 0-.146.143l-.108.434a.046.046 0 0 1-.092 0M47.186 38.746l-.108-.434a.204.204 0 0 0-.146-.142l-.433-.112a.046.046 0 0 1 0-.088l.433-.111a.2.2 0 0 0 .146-.146l.108-.43a.05.05 0 0 1 .092 0l.108.43a.2.2 0 0 0 .146.146l.433.11a.046.046 0 0 1 0 .09l-.433.11a.204.204 0 0 0-.146.143l-.108.434a.046.046 0 0 1-.092 0" opacity=".3" fill="#7B7C8E" fill-rule="nonzero"/>
        <path fill="#F1F2F5" fill-rule="nonzero" d="M43.13 62.976L20.197 76.25 8.601 80.743 5.905 76.09l10.007-8.006L38.51 55z"/>
        <path d="M45.333 62.948L21.041 76.937l-3.569.729-4.207 1.743.31.72a.584.584 0 0 1-.212.79l-2.131 1.227a.422.422 0 0 1-.572-.153l-.158-.273a.419.419 0 0 1 .153-.572l1.593-.916-.132-.347-2.505 1.037a.856.856 0 0 1-.72-.03L5.584 79.16a3.007 3.007 0 0 1-.866-.69l-.74.76a.699.699 0 0 1-1.158-.083l-.974-1.692a.699.699 0 0 1 .609-1.055l1.005.018.033.019a.503.503 0 0 1 .465-.698l2.222-.008 7.08-5.405 2.42-2.723 24.291-13.99 5.363 9.336zm-32.422 9.109l-5.229 3.996 2.053 3.57 1.971-.817-.314-.824a.384.384 0 0 1 .16-.453l.365-.21a.384.384 0 0 1 .525.174l.387.866 2.997-1.267-2.915-5.035zm13.322-9.19l-8.983 5.177 4.206 7.306 8.991-5.158-4.214-7.324zm13.15-7.585l-12.15 7.014 4.206 7.307 12.164-7.007-4.22-7.314z" fill="#7B7C8E" fill-rule="nonzero"/>
        <path fill="#F1F2F5" fill-rule="nonzero" d="M34.775 56.158l9.97-5.77 5.77 9.97-9.97 5.771z"/>
        <path d="M47.02 48.184L34.06 55.68l-2.415 2.726 5.376 9.305 3.568-.734 12.96-7.5a1.92 1.92 0 0 0 .703-2.626l-4.608-7.975a1.92 1.92 0 0 0-2.623-.692zm2.516 12.192l-8.479 4.904-5.287-9.14 8.47-4.903 5.296 9.14zM29.222 94.572L24.43 81.408h.338a.96.96 0 1 0 0-1.92h-2.304a.96.96 0 1 0 0 1.92h.253l-4.792 13.164a.768.768 0 0 0 1.444.526l4.224-11.551 4.224 11.55a.768.768 0 0 0 1.444-.525h-.039z" fill="#7B7C8E" fill-rule="nonzero"/>
        <path fill="#F1F2F5" fill-rule="nonzero" d="M22.656 69.504h1.92v9.216h-1.92z"/>
        <path d="M23.616 69.888c.318 0 .576.258.576.576v7.296a.576.576 0 0 1-1.152 0v-7.296c0-.318.258-.576.576-.576zm0-1.152a1.724 1.724 0 0 0-1.728 1.728v7.296a1.728 1.728 0 0 0 3.456 0v-7.296a1.724 1.724 0 0 0-1.728-1.728z" fill="#7B7C8E" fill-rule="nonzero"/>
    </g>
</svg>
