<svg width="370" height="248" viewBox="0 0 370 248" xmlns="http://www.w3.org/2000/svg" xmlns:xlink="http://www.w3.org/1999/xlink"><title>404</title><defs><filter x="-27.4%" y="-24.2%" width="154.8%" height="154.8%" filterUnits="objectBoundingBox" id="a"><feOffset dy="6" in="SourceAlpha" result="shadowOffsetOuter1"/><feGaussianBlur stdDeviation="16" in="shadowOffsetOuter1" result="shadowBlurOuter1"/><feColorMatrix values="0 0 0 0 0.0266549981 0 0 0 0 0.240974151 0 0 0 0 0.647693452 0 0 0 0.0538949275 0" in="shadowBlurOuter1" result="shadowMatrixOuter1"/><feMerge><feMergeNode in="shadowMatrixOuter1"/><feMergeNode in="SourceGraphic"/></feMerge></filter><polygon id="b" points="0.05208 0.02976 6.04128 0.02976 6.04128 6.01896 0.05208 6.01896"/><polygon id="d" points="0.05208 0.02976 6.04128 0.02976 6.04128 6.01896 0.05208 6.01896"/></defs><g transform="translate(0 25)" fill="none" fill-rule="evenodd"><path d="M62.371 163v-34.709H0v-23.063L52.619 18h40.824v84.717H110v25.574H93.443V163H62.371zm-30.564-59.862h30.444v-23.49c0-4.712.152-10.147.455-16.305.303-6.157.606-11.516.908-16.077h-.908a820.783 820.783 0 0 1-5.68 12.087 465.39 465.39 0 0 1-6.134 12.314l-19.085 31.47z" fill="#CDCED9"/><g filter="url(#a)" transform="translate(98)"><circle fill="#E6E6EB" fill-rule="nonzero" cx="93" cy="93" r="93"/><path d="M164.268 59.416l-.424-1.689a.804.804 0 0 0-.566-.565l-1.689-.425a.186.186 0 0 1 0-.357l1.69-.424a.804.804 0 0 0 .565-.565l.424-1.69a.186.186 0 0 1 .357 0l.424 1.69c.075.275.29.49.565.565l1.69.424a.186.186 0 0 1 0 .357l-1.69.425a.804.804 0 0 0-.565.565l-.424 1.689a.186.186 0 0 1-.357 0M128.556 31.888l-.424-1.689a.804.804 0 0 0-.566-.565l-1.689-.425a.186.186 0 0 1 0-.357l1.69-.424a.804.804 0 0 0 .565-.565l.424-1.69a.186.186 0 0 1 .357 0l.424 1.69c.075.275.29.49.565.565l1.69.424a.186.186 0 0 1 0 .357l-1.69.425a.804.804 0 0 0-.565.565l-.424 1.689a.186.186 0 0 1-.357 0M42.252 41.56l-.424-1.689a.804.804 0 0 0-.566-.565l-1.689-.425a.186.186 0 0 1 0-.357l1.69-.424a.804.804 0 0 0 .565-.565l.424-1.69a.186.186 0 0 1 .357 0l.424 1.69c.075.275.29.49.565.565l1.69.424a.186.186 0 0 1 0 .357l-1.69.425a.804.804 0 0 0-.565.565l-.424 1.689a.186.186 0 0 1-.357 0M156.828 100.336l-.424-1.689a.804.804 0 0 0-.566-.565l-1.689-.425a.186.186 0 0 1 0-.357l1.69-.424a.804.804 0 0 0 .565-.565l.424-1.69a.186.186 0 0 1 .357 0l.424 1.69c.075.275.29.49.565.565l1.69.424a.186.186 0 0 1 0 .357l-1.69.425a.804.804 0 0 0-.565.565l-.424 1.689a.186.186 0 0 1-.357 0M42.996 133.072l-.424-1.689a.804.804 0 0 0-.566-.565l-1.689-.425a.186.186 0 0 1 0-.357l1.69-.424a.804.804 0 0 0 .565-.565l.424-1.69a.186.186 0 0 1 .357 0l.424 1.69c.075.275.29.49.565.565l1.69.424a.186.186 0 0 1 0 .357l-1.69.425a.804.804 0 0 0-.565.565l-.424 1.689a.186.186 0 0 1-.357 0M12.492 110.752l-.424-1.689a.804.804 0 0 0-.566-.565l-1.689-.425a.186.186 0 0 1 0-.357l1.69-.424a.804.804 0 0 0 .565-.565l.424-1.69a.186.186 0 0 1 .357 0l.424 1.69c.075.275.29.49.565.565l1.69.424a.186.186 0 0 1 0 .357l-1.69.425a.804.804 0 0 0-.565.565l-.424 1.689a.186.186 0 0 1-.357 0M29.604 78.016l-.424-1.689a.804.804 0 0 0-.566-.565l-1.689-.425a.186.186 0 0 1 0-.357l1.69-.424a.804.804 0 0 0 .565-.565l.424-1.69a.186.186 0 0 1 .357 0l.424 1.69c.075.275.29.49.565.565l1.69.424a.186.186 0 0 1 0 .357l-1.69.425a.804.804 0 0 0-.565.565l-.424 1.689a.186.186 0 0 1-.357 0M145.668 142l-.424-1.689a.804.804 0 0 0-.566-.565l-1.689-.425a.186.186 0 0 1 0-.357l1.69-.424a.804.804 0 0 0 .565-.565l.424-1.69a.186.186 0 0 1 .357 0l.424 1.69c.075.275.29.49.565.565l1.69.424a.186.186 0 0 1 0 .357l-1.69.425a.804.804 0 0 0-.565.565l-.424 1.689a.186.186 0 0 1-.357 0M118.14 89.176l-.424-1.689a.804.804 0 0 0-.566-.565l-1.689-.425a.186.186 0 0 1 0-.357l1.69-.424a.804.804 0 0 0 .565-.565l.424-1.69a.186.186 0 0 1 .357 0l.424 1.69c.075.275.29.49.565.565l1.69.424a.186.186 0 0 1 0 .357l-1.69.425a.804.804 0 0 0-.565.565l-.424 1.689a.186.186 0 0 1-.357 0" fill="#7B7C8E" fill-rule="nonzero"/><g transform="translate(79.608 19.344)"><mask id="c" fill="#fff"><use xlink:href="#b"/></mask><g mask="url(#c)"><mask id="e" fill="#fff"><use xlink:href="#d"/></mask><path d="M2.872 5.878l-.432-1.69a.744.744 0 0 0-.565-.557L.186 3.199a.179.179 0 0 1 0-.35l1.689-.431a.789.789 0 0 0 .565-.565l.432-1.69a.179.179 0 0 1 .35 0l.431 1.69a.744.744 0 0 0 .565.565l1.69.432a.179.179 0 0 1 0 .35l-1.69.43a.744.744 0 0 0-.565.559l-.431 1.689a.179.179 0 0 1-.35 0" fill="#7B7C8E" fill-rule="nonzero" mask="url(#e)"/></g></g><path d="M73.5 66.112l-.424-1.689a.804.804 0 0 0-.566-.565l-1.689-.425a.186.186 0 0 1 0-.357l1.69-.424a.804.804 0 0 0 .565-.565l.424-1.69a.186.186 0 0 1 .357 0l.424 1.69c.075.275.29.49.565.565l1.69.424a.186.186 0 0 1 0 .357l-1.69.425a.804.804 0 0 0-.565.565l-.424 1.689a.186.186 0 0 1-.357 0M124.092 172.504l-.424-1.689a.804.804 0 0 0-.566-.565l-1.689-.425a.186.186 0 0 1 0-.357l1.69-.424a.804.804 0 0 0 .565-.565l.424-1.69a.186.186 0 0 1 .357 0l.424 1.69c.075.275.29.49.565.565l1.69.424a.186.186 0 0 1 0 .357l-1.69.425a.804.804 0 0 0-.565.565l-.424 1.689a.186.186 0 0 1-.357 0M64.572 168.784l-.424-1.689a.804.804 0 0 0-.566-.565l-1.689-.425a.186.186 0 0 1 0-.357l1.69-.424a.804.804 0 0 0 .565-.565l.424-1.69a.186.186 0 0 1 .357 0l.424 1.69c.075.275.29.49.565.565l1.69.424a.186.186 0 0 1 0 .357l-1.69.425a.804.804 0 0 0-.565.565l-.424 1.689a.186.186 0 0 1-.357 0" fill="#7B7C8E" fill-rule="nonzero"/><path d="M155.407 41.59l-.209-.841a.394.394 0 0 0-.282-.275l-.841-.216a.09.09 0 0 1 0-.171l.84-.216a.387.387 0 0 0 .283-.283l.209-.833a.097.097 0 0 1 .178 0l.209.833c.034.14.143.248.282.283l.841.216a.09.09 0 0 1 0 .17l-.84.217a.394.394 0 0 0-.283.275l-.209.84a.09.09 0 0 1-.178 0M162.847 86.23l-.209-.841a.394.394 0 0 0-.282-.275l-.841-.216a.09.09 0 0 1 0-.171l.84-.216a.387.387 0 0 0 .283-.283l.209-.833a.097.097 0 0 1 .178 0l.209.833c.034.14.143.248.282.283l.841.216a.09.09 0 0 1 0 .17l-.84.217a.394.394 0 0 0-.283.275l-.209.84a.09.09 0 0 1-.178 0M162.847 130.87l-.209-.841a.394.394 0 0 0-.282-.275l-.841-.216a.09.09 0 0 1 0-.171l.84-.216a.387.387 0 0 0 .283-.283l.209-.833a.09.09 0 0 1 .178 0l.209.833c.034.14.143.248.282.283l.841.216a.09.09 0 0 1 0 .17l-.84.217a.394.394 0 0 0-.283.275l-.209.84a.09.09 0 0 1-.178 0M140.527 160.63l-.209-.841a.394.394 0 0 0-.282-.275l-.841-.216a.09.09 0 0 1 0-.171l.84-.216a.387.387 0 0 0 .283-.283l.209-.833a.09.09 0 0 1 .178 0l.209.833c.034.14.143.248.282.283l.841.216a.09.09 0 0 1 0 .17l-.84.217a.394.394 0 0 0-.283.275l-.209.84a.09.09 0 0 1-.178 0M88.447 175.51l-.209-.841a.394.394 0 0 0-.282-.275l-.841-.216a.09.09 0 0 1 0-.171l.84-.216a.387.387 0 0 0 .283-.283l.209-.833a.09.09 0 0 1 .178 0l.209.833c.034.14.143.248.282.283l.841.216a.09.09 0 0 1 0 .17l-.84.217a.394.394 0 0 0-.283.275l-.209.84a.09.09 0 0 1-.178 0M43.807 153.19l-.209-.841a.394.394 0 0 0-.282-.275l-.841-.216a.09.09 0 0 1 0-.171l.84-.216a.387.387 0 0 0 .283-.283l.209-.833a.09.09 0 0 1 .178 0l.209.833c.034.14.143.248.282.283l.841.216a.09.09 0 0 1 0 .17l-.84.217a.394.394 0 0 0-.283.275l-.209.84a.097.097 0 0 1-.178 0M14.047 123.43l-.209-.841a.394.394 0 0 0-.282-.275l-.841-.216a.09.09 0 0 1 0-.171l.84-.216a.387.387 0 0 0 .283-.283l.209-.833a.097.097 0 0 1 .178 0l.209.833c.034.14.143.248.282.283l.841.216a.09.09 0 0 1 0 .17l-.84.217a.394.394 0 0 0-.283.275l-.209.84a.09.09 0 0 1-.178 0M21.487 63.91l-.209-.841a.394.394 0 0 0-.282-.275l-.841-.216a.09.09 0 0 1 0-.171l.84-.216a.387.387 0 0 0 .283-.283l.209-.833a.09.09 0 0 1 .178 0l.209.833c.034.14.143.248.282.283l.841.216a.09.09 0 0 1 0 .17l-.84.217a.394.394 0 0 0-.283.275l-.209.84a.09.09 0 0 1-.178 0M51.247 41.59l-.209-.841a.394.394 0 0 0-.282-.275l-.841-.216a.09.09 0 0 1 0-.171l.84-.216a.387.387 0 0 0 .283-.283l.209-.833a.09.09 0 0 1 .178 0l.209.833c.034.14.143.248.282.283l.841.216a.09.09 0 0 1 0 .17l-.84.217a.394.394 0 0 0-.283.275l-.209.84a.09.09 0 0 1-.178 0M81.007 11.83l-.209-.841a.394.394 0 0 0-.282-.275l-.841-.216a.09.09 0 0 1 0-.171l.84-.216a.387.387 0 0 0 .283-.283l.209-.833a.09.09 0 0 1 .178 0l.209.833c.034.14.143.248.282.283l.841.216a.09.09 0 0 1 0 .17l-.84.217a.394.394 0 0 0-.283.275l-.209.84a.097.097 0 0 1-.178 0M118.207 41.59l-.209-.841a.394.394 0 0 0-.282-.275l-.841-.216a.09.09 0 0 1 0-.171l.84-.216a.387.387 0 0 0 .283-.283l.209-.833a.097.097 0 0 1 .178 0l.209.833c.034.14.143.248.282.283l.841.216a.09.09 0 0 1 0 .17l-.84.217a.394.394 0 0 0-.283.275l-.209.84a.09.09 0 0 1-.178 0M88.447 78.79l-.209-.841a.394.394 0 0 0-.282-.275l-.841-.216a.09.09 0 0 1 0-.171l.84-.216a.387.387 0 0 0 .283-.283l.209-.833a.097.097 0 0 1 .178 0l.209.833c.034.14.143.248.282.283l.841.216a.09.09 0 0 1 0 .17l-.84.217a.394.394 0 0 0-.283.275l-.209.84a.09.09 0 0 1-.178 0" opacity=".3" fill="#7B7C8E" fill-rule="nonzero"/><path d="M83.328 148.8a21.115 21.115 0 0 1-8.08-4.925 19.106 19.106 0 0 1-4.724-7.887l1.644-1.607s3.846.692 8.05 4.896c4.204 4.203 4.754 7.916 4.754 7.916l-1.644 1.607zm19.262-20.006a17.804 17.804 0 0 1-7.842-4.412 16.308 16.308 0 0 1-4.226-7.648l1.72-1.719s3.853.424 7.811 4.382c3.958 3.958 4.248 7.686 4.248 7.686l-1.71 1.71z" fill="#A7A9BC" fill-rule="nonzero"/><path d="M84.816 146.047a24.373 24.373 0 0 0-4.829-6.926 22.06 22.06 0 0 0-6.748-4.65l14.21-14.203s3.624.476 7.44 4.27c3.817 3.795 4.145 7.306 4.145 7.306l-14.218 14.203zm20.021-19.991a24.373 24.373 0 0 0-4.829-6.927 22.06 22.06 0 0 0-6.748-4.65l8.422-8.414s3.624.468 7.44 4.27c3.817 3.802 4.145 7.306 4.145 7.306l-8.43 8.415z" fill="#F1F2F5" fill-rule="nonzero"/><path d="M114.835 125.533l14.73 14.73-22.096 22.096-14.73-14.73 22.096-22.096zm-43.143 1.047L56.96 111.85l22.096-22.095 14.73 14.73-22.095 22.095z" fill="#CDCED9" fill-rule="nonzero"/><path d="M114.829 123.43l-2.626 2.626-2.091-2.106 4.583-4.583a15.267 15.267 0 0 0-4.226-9.448l2.329-2.33a3.72 3.72 0 1 0-1.057-1.048l-2.32 2.321a15.319 15.319 0 0 0-9.45-4.226l-4.59 4.583-2.12-2.083 2.633-2.626-16.837-16.837-24.202 24.18 16.837 16.859 2.634-2.634 2.105 2.106-7.365 7.365s.483 4.167 4.88 8.794l-.744.744a3.72 3.72 0 1 0 1.057 1.05l.744-.745c4.598 4.293 8.801 4.889 8.801 4.889l7.366-7.366 2.098 2.105-2.626 2.627 16.836 16.837 24.21-24.225-16.859-16.83zm-54.186-8.928l-2.611-2.649 2.626-2.634 2.634 2.634-2.649 2.649zm3.683-3.72l-2.626-2.627 2.626-2.633 2.634 2.648-2.634 2.612zm3.72-3.683l-2.626-2.627 2.626-2.633 2.634 2.648-2.634 2.612zm3.72-3.683l-2.626-2.626 2.552-2.582 2.634 2.634-2.56 2.574zm3.72-3.675l-2.626-2.634 2.626-2.634 2.634 2.634-2.634 2.634zm3.72-3.72l-2.626-2.634 2.626-2.634 2.634 2.634-2.634 2.634zM64.475 118.11l-2.626-2.626 2.626-2.634 2.485 2.686-2.485 2.574zm3.72-3.683l-2.626-2.626 2.626-2.634 2.485 2.686-2.485 2.574zm3.72-3.72l-2.626-2.626 2.626-2.634 2.634 2.634-2.634 2.626zm3.72-3.683l-2.626-2.626 2.626-2.634 2.634 2.634-2.634 2.626zm3.72-3.682l-2.626-2.627 2.626-2.633 2.634 2.633-2.634 2.627zm3.683-3.676l-2.626-2.634 2.626-2.633 2.634 2.633-2.634 2.634zm-14.731 22.09l-2.627-2.627 2.627-2.633 2.373 2.723-2.373 2.537zm3.72-3.72l-2.627-2.627 2.627-2.633 2.633 2.633-2.633 2.627zm3.72-3.683l-2.627-2.627 2.627-2.633 2.633 2.633-2.633 2.627zm3.72-3.72l-2.627-2.627 2.627-2.633 2.633 2.633-2.633 2.627zm3.682-3.683l-2.626-2.626 2.626-2.634 2.634 2.634-2.634 2.626zm3.72-3.683l-2.626-2.626 2.626-2.634 2.634 2.634-2.634 2.626zm-14.73 22.097l-2.627-2.626 2.626-2.634 2.634 2.634-2.634 2.626zm3.72-3.683l-2.627-2.626 2.626-2.634 2.634 2.634-2.634 2.626zm3.72-3.72l-2.627-2.626 2.626-2.634 2.634 2.634-2.634 2.626zm3.682-3.683l-2.626-2.626 2.626-2.634 2.634 2.634-2.634 2.626zm3.72-3.72l-2.626-2.626 2.626-2.634 2.634 2.634-2.634 2.626zm3.72-3.682l-2.626-2.627 2.626-2.633 2.634 2.633-2.634 2.627zm1.057 6.316l-2.232 2.232-2.976 2.976-.521.528-7.366 7.366-2.775-1.815 15.78-15.78 2.106 2.097-2.016 2.396zm.677 2.478a15.14 15.14 0 0 1 2.455.699l-2.009 2.009c-.379-.714-.69-1.46-.93-2.232l.484-.476zm-2.232 2.232a16.1 16.1 0 0 0 .744 1.592 15.021 15.021 0 0 0-1.741-.588l.997-1.004zm-6.51 29.656a17.856 17.856 0 0 1-6.525-3.996l.915-.915c1.272 1.124 2.5 1.711 2.88 1.332.379-.38-.388-1.972-1.846-3.423-1.458-1.45-2.976-2.276-3.415-1.845-.439.432.2 1.607 1.332 2.88l-.923.922a16.896 16.896 0 0 1-4.01-6.51l.484-.483a14.65 14.65 0 0 1 7.678 4.07 13.898 13.898 0 0 1 3.943 7.44l-.513.528zm2.38-2.381a16.294 16.294 0 0 0-4.233-7.165 16.807 16.807 0 0 0-7.99-4.092l12.886-12.886c2.847.5 5.47 1.87 7.506 3.92l.134.142a13.757 13.757 0 0 1 3.936 7.507l-12.239 12.574zm7.99-24.828l2.977-2.976c.652.381 1.274.811 1.86 1.288l-3.43 3.437a20.326 20.326 0 0 1-1.994-1.518l.588-.23zm3.513 3.862l3.444-3.452c.484.58.922 1.197 1.31 1.845l-2.976 2.976c-.811-.33-1.602-.711-2.366-1.139l.588-.23zm3.191 6.272c-.162-.611-.366-1.21-.61-1.793.534.278 1.083.527 1.645.744l-1.035 1.049zm2.768-2.768a14.627 14.627 0 0 1-2.232-.937l2.039-2.046c.306.8.538 1.627.692 2.47l-.499.513zm2.373-2.373a16.22 16.22 0 0 0-4.226-7.172 16.807 16.807 0 0 0-7.402-4.345l7.097-7.098a14.486 14.486 0 0 1 10.967 11.8l-6.436 6.815zm-10.483 17.856l-2.098-2.106 7.366-7.365.52-.529 2.977-2.976 2.232-2.232 2.634-2.633 2.105 2.105-15.736 15.736zm.997 7.09l-2.633-2.634 2.633-2.626 2.627 2.626-2.627 2.634zm3.72-3.72l-2.678-2.626 2.634-2.627 2.626 2.627-2.582 2.626zm3.683-3.683l-2.641-2.626 2.604-2.619 2.626 2.626-2.589 2.62zm3.683-3.683l-2.634-2.633 2.634-2.627 2.626 2.627-2.626 2.633zm3.72-3.72l-2.634-2.633 2.634-2.627 2.626 2.627-2.626 2.633zm3.675-3.682l-2.626-2.634 2.626-2.626 2.634 2.626-2.634 2.634zm-14.723 22.096l-2.716-2.589 2.634-2.626 2.626 2.626-2.544 2.59zm3.608-3.608l-2.604-2.664 2.634-2.626 2.626 2.626-2.656 2.664zm3.683-3.72l-2.634-2.634 2.634-2.626 2.626 2.626-2.626 2.634zm3.72-3.683l-2.634-2.634 2.597-2.611 2.626 2.626-2.59 2.62zm3.675-3.683l-2.626-2.633 2.626-2.627 2.634 2.627-2.634 2.633zm3.683-3.72l-2.626-2.633 2.626-2.627 2.634 2.627-2.634 2.633zm-14.724 22.097l-2.641-2.589 2.634-2.626 2.626 2.626-2.619 2.59zm3.683-3.72l-2.634-2.634 2.634-2.626 2.626 2.626-2.626 2.634zm3.72-3.683l-2.634-2.633 2.634-2.627 2.626 2.627-2.626 2.633zm3.675-3.72l-2.626-2.633 2.626-2.627 2.634 2.627-2.634 2.633zm3.683-3.682l-2.626-2.634 2.626-2.626 2.634 2.626-2.634 2.634zm3.72-3.683l-2.626-2.634 2.626-2.626 2.634 2.626-2.634 2.634zm-14.724 22.097l-2.633-2.634 2.633-2.626 2.627 2.626-2.627 2.634zm3.72-3.683l-2.633-2.634 2.633-2.626 2.627 2.626-2.627 2.634zm3.676-3.72l-2.627-2.634 2.627-2.626 2.634 2.626-2.634 2.634zm3.683-3.683l-2.627-2.634 2.627-2.626 2.633 2.626-2.633 2.634zm3.72-3.72l-2.627-2.634 2.627-2.626 2.633 2.626-2.633 2.634zm3.682-3.683l-2.626-2.634 2.626-2.626 2.634 2.626-2.634 2.634z" fill="#7B7C8E" fill-rule="nonzero"/></g><path d="M321.682 162.934v-34.693H259V105.19L311.88 18h41.028v84.678h16.64v25.563h-16.64v34.693h-31.226zM290.966 103.1h30.595V79.62c0-4.711.152-10.144.457-16.298.304-6.155.609-11.511.913-16.07h-.913a818.384 818.384 0 0 1-5.708 12.08 464.17 464.17 0 0 1-6.165 12.31l-19.18 31.456z" fill="#CDCED9"/></g></svg>
