<svg width="480" height="354" xmlns="http://www.w3.org/2000/svg">
    <defs>
        <linearGradient x1="58.231%" y1="19.263%" x2="42.099%" y2="91.096%" id="a">
            <stop stop-color="#FFF" stop-opacity="0" offset="22%"/>
            <stop stop-color="#00004C" stop-opacity=".6" offset="100%"/>
        </linearGradient>
        <linearGradient x1="58.234%" y1="19.268%" x2="42.103%" y2="91.099%" id="b">
            <stop stop-color="#FFF" stop-opacity="0" offset="22%"/>
            <stop stop-color="#00004C" stop-opacity=".6" offset="100%"/>
        </linearGradient>
        <linearGradient x1="61.786%" y1="10.819%" x2="40.328%" y2="116.531%" id="c">
            <stop stop-color="#FFF" stop-opacity="0" offset="0%"/>
            <stop stop-color="#F0EFF1" stop-opacity=".07" offset="34%"/>
            <stop stop-color="#BFBDC4" stop-opacity=".28" offset="61%"/>
            <stop stop-color="#6D6878" stop-opacity=".64" offset="84%"/>
            <stop stop-color="#1B142D" offset="100%"/>
        </linearGradient>
        <linearGradient x1="37.181%" y1="10.474%" x2="59.177%" y2="124.595%" id="d">
            <stop stop-color="#FFF" stop-opacity="0" offset="0%"/>
            <stop stop-color="#F0EFF1" stop-opacity=".07" offset="34%"/>
            <stop stop-color="#BFBDC4" stop-opacity=".28" offset="61%"/>
            <stop stop-color="#6D6878" stop-opacity=".64" offset="84%"/>
            <stop stop-color="#1B142D" offset="100%"/>
        </linearGradient>
        <linearGradient x1="73.949%" y1="-19.089%" x2="28.411%" y2="94.44%" id="e">
            <stop stop-color="#FFF" stop-opacity="0" offset="22%"/>
            <stop stop-color="#000048" stop-opacity=".6" offset="100%"/>
        </linearGradient>
        <linearGradient x1="145.35%" y1="70.603%" x2="-45.339%" y2="29.393%" id="f">
            <stop stop-color="#FFF" stop-opacity="0" offset="31%"/>
            <stop stop-color="#FFF" stop-opacity=".02" offset="38%"/>
            <stop stop-color="#FFF" stop-opacity=".08" offset="46%"/>
            <stop stop-color="#FFF" stop-opacity=".18" offset="56%"/>
            <stop stop-color="#FFF" stop-opacity=".32" offset="66%"/>
            <stop stop-color="#FFF" stop-opacity=".49" offset="76%"/>
            <stop stop-color="#FFF" stop-opacity=".71" offset="87%"/>
            <stop stop-color="#FFF" stop-opacity=".96" offset="98%"/>
            <stop stop-color="#FFF" offset="100%"/>
        </linearGradient>
        <linearGradient x1="126.908%" y1="74.393%" x2="-26.908%" y2="25.607%" id="g">
            <stop stop-color="#FFF" stop-opacity="0" offset="31%"/>
            <stop stop-color="#FFF" stop-opacity=".02" offset="38%"/>
            <stop stop-color="#FFF" stop-opacity=".08" offset="46%"/>
            <stop stop-color="#FFF" stop-opacity=".18" offset="56%"/>
            <stop stop-color="#FFF" stop-opacity=".32" offset="66%"/>
            <stop stop-color="#FFF" stop-opacity=".49" offset="76%"/>
            <stop stop-color="#FFF" stop-opacity=".71" offset="87%"/>
            <stop stop-color="#FFF" stop-opacity=".96" offset="98%"/>
            <stop stop-color="#FFF" offset="100%"/>
        </linearGradient>
        <linearGradient x1="145.334%" y1="70.604%" x2="-45.334%" y2="29.4%" id="h">
            <stop stop-color="#FFF" stop-opacity="0" offset="31%"/>
            <stop stop-color="#FFF" stop-opacity=".02" offset="38%"/>
            <stop stop-color="#FFF" stop-opacity=".08" offset="46%"/>
            <stop stop-color="#FFF" stop-opacity=".18" offset="56%"/>
            <stop stop-color="#FFF" stop-opacity=".32" offset="66%"/>
            <stop stop-color="#FFF" stop-opacity=".49" offset="76%"/>
            <stop stop-color="#FFF" stop-opacity=".71" offset="87%"/>
            <stop stop-color="#FFF" stop-opacity=".96" offset="98%"/>
            <stop stop-color="#FFF" offset="100%"/>
        </linearGradient>
        <linearGradient x1="127.669%" y1="73.99%" x2="-27.866%" y2="25.87%" id="i">
            <stop stop-color="#FFF" stop-opacity="0" offset="31%"/>
            <stop stop-color="#FFF" stop-opacity=".02" offset="38%"/>
            <stop stop-color="#FFF" stop-opacity=".08" offset="46%"/>
            <stop stop-color="#FFF" stop-opacity=".18" offset="56%"/>
            <stop stop-color="#FFF" stop-opacity=".32" offset="66%"/>
            <stop stop-color="#FFF" stop-opacity=".49" offset="76%"/>
            <stop stop-color="#FFF" stop-opacity=".71" offset="87%"/>
            <stop stop-color="#FFF" stop-opacity=".96" offset="98%"/>
            <stop stop-color="#FFF" offset="100%"/>
        </linearGradient>
    </defs>
    <g fill="none" fill-rule="evenodd">
        <g fill-rule="nonzero" opacity=".27">
            <path fill="url(#a)" d="M.13 81.908l67.753 38.522 5.785-3.362 44.94-22.643-88.179-47.18z" transform="translate(93.935 231.225)"/>
            <path fill="url(#b)" d="M241.86 15.59l30.434 17.3 2.598-1.51 20.184-10.17L255.473.02z" transform="translate(93.935 231.225)"/>
        </g>
        <g fill-rule="nonzero">
            <path d="M29 149.062l424.98-2.898s8.94 1.715-15.082-7.582c-43.292-16.75-47.028-47.769-75.197-48.54-28.168-.772-34.609 22.958-80.735 25.407-91.568 4.866-76.444-43.1-138.86-42.891-63.254.206-41.944 75.346-115.106 76.504z" fill="#CFF8FF"/>
            <path d="M29 149.062l424.98-2.898s8.94 1.715-15.082-7.582c-43.292-16.75-47.028-47.769-75.197-48.54-28.168-.772-34.609 22.958-80.735 25.407-91.568 4.866-76.444-43.1-138.86-42.891-63.254.206-41.944 75.346-115.106 76.504z" fill="#CFF8FF"/>
            <path d="M265.506 77.47l95.501 21.28s72.988 1.645 48.965-7.652c-43.292-16.75-47.028-47.769-75.196-48.54-28.168-.772-34.609 22.958-80.736 25.407" fill="url(#c)" transform="translate(28.903 47.484)"/>
            <path d="M230.1 66.414c-63.44 5.916-52.489-41.533-114.905-41.326-63.246.208-41.936 75.34-115.102 76.505l151.853-1.785" fill="url(#d)" opacity=".55" transform="translate(28.903 47.484)"/>
            <path d="M479.883 153.412s-22.696-4.294-46.655-34.088c-14.728-18.316-26.257 5.259-63.608 14.31-28.567 6.927-66.737-95.962-110.569-85.384-43.832 10.576-54.116 93.201-118.387 104.734" fill="#EAF3F9"/>
            <path d="M182.722 51.484s8.914-4.91 12.05-3.559c3.137 1.351 2.068 1.912.864 3.24-1.203 1.329-.793 3.166-7.137 3.804l2.869-3.804s-1.844-1.673-8.646.32z" fill="url(#e)" opacity=".19" transform="translate(28.903 47.484)"/>
            <path d="M173.991 334.885s3.23 2.635 14.025 3.051c4.634.182 4.32 9.757 10.057 9.65 14.334-.283 14.923-10.18 11.35-15.425-3.572-5.244-44.752-12.86-35.432 2.724zm123.208-43.897s5.632 3.11 13.995 1.833c3.054-.467 7.077 4.05 11.294 4.51 12.207 1.34 10.057-5.051 7.528-9.39-2.53-4.338-39.228-9.709-32.817 3.047zm-118.466-53.602s3.666 2.07 12.099 2.386c2.496.097 3.319 5.938 6.414 6.268 12.207 1.337 13.269-4.082 10.74-8.435-2.53-4.354-35.664-12.975-29.253-.22zm206.942-1.407s4.097 3.478 9.078 4.454c2.343.467.745 4.116 3.65 4.95 8.542 2.446 7.998-.875 6.515-3.63-1.482-2.753-22.871-13.724-19.243-5.774zm-155.638-30.93s2.157 3.533 9.61 4.951c2.292.434 2.813 5.448 5.48 6.213 10.125 2.895 13.41-4.543 10.691-7.052-6.392-5.9-30.083-13.539-25.78-4.112zm141.993-16.927a14.747 14.747 0 0 0 8.843 4.528c5.532.638 4.843-1.359 3.655-2.91-1.189-1.551-15.556-6.165-12.498-1.618zm-70.48 27.601s-9.588-1.243-18.148 4.876c-8.56 6.12-5.119 8.7-1.401 8.703 12.292 0 5.722-5.938 10.15-5.938 5.838 0 15.519-6.134 9.399-7.641z" fill="#E5EAEA" opacity=".56"/>
        </g>
        <g fill-rule="nonzero">
            <path d="M375.777 215.532l-47.599-20.569 39.503 11.03s10.725 1.514 8.094 9.539z" fill="#1D5577"/>
            <path d="M300.48 175.74s36.126 33.262 48.447 18.856l41.226 13.66s-7.627 23.769-32.33-9.42l-57.344-23.096z" fill="#ABDFFF"/>
            <path d="M372.437 212.034l-18.185-7.99h4.082l20.827 10.11s-2.617-.313-6.725-2.121zM366.692 202.996l19.512 8.047.872-.856-23.687-9.24zM366.692 205.997l16.269 7.83s1.21.065 1.58-.417l-21.152-10.414 3.303 3z" fill="#1386BF" opacity=".08"/>
        </g>
        <g fill-rule="nonzero">
            <path d="M435.121 218.045l-36.416-21.332c-1.563-.917-2.842-2.964-2.842-4.55v-65.034c0-1.586 1.279-2.132 2.842-1.216l36.416 21.332c1.564.917 2.843 2.964 2.843 4.551v65.007c0 1.613-1.28 2.16-2.843 1.243z" fill="#E6F9FF"/>
            <path d="M435.593 147.033l-36.416-21.334c-.94-.549-1.777-.568-2.297-.149a2.451 2.451 0 0 1 1.825.375l36.416 21.332c1.564.917 2.843 2.964 2.843 4.55v65.007a1.686 1.686 0 0 1-.55 1.37c.624-.169 1.022-.727 1.022-1.614v-64.987c0-1.587-1.28-3.638-2.843-4.55z" fill="#44BEEB"/>
            <path fill="#CCDEE2" d="M409.293 188.667l-9.8-5.745v-1.474l9.8 5.74zM411.67 185.074l-12.176-7.137v-1.478l12.177 7.137zM430.93 190.47l-12.177-7.14v-1.474l12.177 7.136zM426.506 198.46l-7.753-4.89v-1.479l7.753 4.895zM426.506 195.822l-7.753-4.891v-1.478l7.753 4.891zM426.506 193.128l-7.753-4.892v-1.474l7.753 4.891zM407.276 177.271l-7.782-4.562v-1.475l7.782 4.559z"/>
            <path d="M395.863 158.229h-2.688a.7.7 0 0 0-.737.637c.016.403.187.785.475 1.063l2.95 3.439v-5.139z" fill="#E6F9FF"/>
            <path fill="#FDCC4A" d="M410.701 167.185L405.263 164v-13.69l5.438 3.185z"/>
            <path fill="#168CCA" d="M418.9 171.99l-5.438-3.184v-24.588l5.438 3.188z"/>
            <path fill="#D33A2F" d="M427.103 176.8l-5.438-3.19v-19.25l5.438 3.185z"/>
        </g>
        <g fill-rule="nonzero">
            <path d="M196.237 166.129s-4.054 4.02-3.7 9.272l2.928 2.233-4.903 3.742s1.32 6.44-.08 15.903c-1.402 9.462-4.025 30.7-4.025 30.7l9.282-18.025 7.43 23.428s-1.565-12.935-.237-26.315c.614-6.185-7.969-8.147-1.83-14.828.754-.823 3.502-5.823 3.363-6.543-1.606-8.406-1.855-8.04-3.08-7.964-1.227.077 11.881-12.43-5.149-11.603z" fill="#C7D9E8"/>
            <path d="M202.657 172.151c-.391-.756-2.641-.975-4.152 2.04a10.926 10.926 0 0 1-4.332 4.437l5.649 1.707s4.28-5.384 2.835-8.184z" fill="#12435B" opacity=".21"/>
            <path d="M190.57 181.376s-4.464 9.675-7.267 19.656l10.292-9.51s4.796-20.971-3.026-10.146z" fill="#C7D9E8"/>
            <path fill="#12435B" opacity=".21" d="M183.3 201.032l7.65-11.937-1.237 6.002z"/>
            <path d="M200.356 178.029s5.452 8.314-.19 8.373l-8.327-5.994s-7.46 6.191-2.598 9.528l.575 9.258 12.227 1.531s-1.504-5.661 3.01-13.197c0 0 3.985-10.925-4.697-9.5z" fill="#2980C1"/>
            <path d="M189.816 199.198s-3.79 3.168-3.842 30.397l9.787-19.645 7.449 24.609s5.82-24.748-1.167-33.83l-12.227-1.531zm-5.079 32.557a3.779 3.779 0 0 1-2.114 3.253l3.834-1.323s.395-5.186-1.72-1.93zm18.169 4.164s-.984 4.074-3.322 4.56l2.338-.486s5.082.823.984-4.075zm-8.565-68.596s3.04-3.655 6.952-2.098l2.239 1.77s-.344-2.703 1.602-2.615c1.947.088 3.15 4.218.278 4.09 0 0 1.464 4.773-1.66 6.126 0 0-3.828 3.176-1.925-2.672l-.63-2.584-1.829 1.732-1.075-.325.102-2.314-1.295 1.517-3.446-1.729.687-.899z" fill="#1D5577"/>
            <path d="M204.245 180.375c-.677-2.007-25.464-8.373-25.464-8.373s21.125 15.09 22.446 15.562c1.826.647 5.715.822 3.018-7.19z" fill="#C7D9E8"/>
            <path d="M178.781 172.002l25.753 12.28s.216 4.594-2.22 3.534l-23.534-15.814zm14.653 14.703s1.756 3.227 7.105 3.93c0 0-4.423 3.234-7.105-3.93z" fill="#12435B" opacity=".21"/>
            <path d="M195.76 209.947s-.515-6.338-2.842-3.385c-2.327 2.953-2.795 9.616-4.306 13.015-1.511 3.4-2.638 10.015-2.638 10.015l9.787-19.645z" fill="#12435B"/>
        </g>
        <g fill-rule="nonzero">
            <path d="M177.987 281.741s-6.33-4.69.521-10.918c1.742-1.584 5.499 10.746-.521 10.918z" fill="#1D5577"/>
            <path d="M178.501 270.823s6.142-3.274 6.987-6.711c.313-1.276 7.167-2.33 8.161-1.335l7.215 2.207-22.363 5.84z" fill="#FDCC4A"/>
            <path d="M194.509 257.617s4.467-7.831-4.467-8.95c-8.935-1.118-7.264 14.654-3.91 14.33 1.962-.19 2.026 1.67 1.184 2.423a26.692 26.692 0 0 1-2.673 2.13c-6.515 4.275-22.259 9.641-22.259 9.641s16.489 2.144 22.632-.093c0 0-3.351 33.092-1.117 49.867l8.618-18.904 9.252 30.09s4.467-27.402 5.026-40.27c.558-12.867-.946-28.923-7.074-30.597 0 0-8.391-3.08-5.212-9.669z" fill="#C7D9E8"/>
            <path d="M184.547 251.49s-2.781-1.454 0-3.412c2.78-1.957 6.935-.932 7.37-2.05v1.491l2.298-.28 1.396.932 1.396 2.517s.372 8.927-3.198 10.232c0 0 1.057-7.458-1.217-5.944l-.674 1.399s-2.264-1.212-2.264-3.868a12.001 12.001 0 0 0-5.107-1.018z" fill="#0A628E"/>
            <path d="M197.007 250.688s.372 8.927-3.198 10.232c0 0 1.057-7.458-1.217-5.944l-.674 1.399s-2.264-1.212-2.264-3.868" fill="#0A4177"/>
            <path d="M183.311 329.181s-2.41 0-3.06 1.118c-.652 1.12 1.771 2.61 3.06-1.118zm18.643 10.44s-2.978 2.983-.93 3.729 2.792-1.119.93-3.729z" fill="#1F9CE8"/>
            <path d="M183.62 293.386s-1.363 21.686.286 33.587l8.686-18.684s5.413 19.55 9.054 29.457c0 0 5.666-26.437 5.264-42.739 0-.01-21.664 3.058-23.29-1.621zm7.33-15.851s4.575 5.72 4.062 8.017l2.978-1.842s-4.065-7.104-7.04-6.175zm-12.14-6.198s.93 5.639-.674 8.062l2.114-.678s.235-4.449-1.44-7.383z" fill="#1D5577"/>
            <path d="M184.651 295.153s6.176 9.93 21.593 10.045c0 0 .744-5.22.662-6.712l-22.255-3.333z" fill="#12435B"/>
            <path d="M177.987 281.741c1.988-.078 6.664-1.865 6.664-1.865l-1.031 13.498c1.597 6.514 23.29 7.338 23.29 7.338 1.861-19.389-3.328-32.566-3.328-32.566-.216-3.464-7.185-3.546-7.185-3.546l-7.737 3.546-1.336-2.726-8.823 5.403s4.266 10.776-.514 10.918z" fill="#FDCC4A"/>
            <path d="M194.137 273.899c-.093.28-4.43 17.991-4.43 17.991s18.283-.28 13.536-22.465l-9.106 4.474z" fill="#1D5577" opacity=".23"/>
            <path d="M189.967 276.908s4.337 17.339 8.437 10.509c0 .004 3.418-3.117-8.436-10.508z" fill="#1D5577"/>
            <path d="M195.012 271.069s-3.918-.428-4.948 1.932c-1.031 2.36-2.573 4.97-3.418 5.343-.845.373-2.144 3.475-2.323 5.835l5.741-4.351s6.955-4.713 4.949-8.759z" fill="#1D5577" opacity=".23"/>
            <path d="M196.88 266.658s-10.673 16.906-16.63 21.876c0 0 15.856-.518 21.068-10.876 0 0 6.482-12.491-4.438-11z" fill="#C7D9E8"/>
            <path d="M196.397 264.604l-6.43 12.304s8.995 6.593 8.436 10.508c0 0 8.313-9.818 5.179-19.266 0 0 .119-4.169-7.185-3.546z" fill="#FDCC4A"/>
            <path d="M192.592 308.3s-4.427-8.438-4.8-3.837c-.371 4.602.745 8.789-1.365 9.863 0 0-1.985.238-1.776 5.425 0 0 .193 4.21-.745 7.234l8.686-18.685zm1.82 6.399s6.962 12.923 9.602 8.605l-2.234 14.848-7.368-23.453z" fill="#12435B"/>
            <path d="M186.646 262.997c0-.474 3.705.23 5.093-2.588 0 0 2.487-2.871 1.512 1.973-.976 4.843-3.798 9.866-5 8.441-1.203-1.424-1.381-1.92-1.605-7.826zm-6.396 25.541s11.716-5.593 13.228-8.706l2.978 3.132s-4.117 4.702-16.206 5.574zM168.162 276.908l11.035-1.54v3.688l-13.7-1.521z" fill="#12435B" opacity=".21"/>
        </g>
        <g fill-rule="nonzero">
            <path d="M233.625 161.043c.415-1.593 1.572-2.907 3.129-3.554.892-.372 5.315-1.671 6.05-.958l5.361 1.585-14.54 2.927z" fill="#44BEEB"/>
            <path d="M243.443 152.828s3.309-5.62-3.312-6.422c-6.62-.802-5.384 10.518-2.899 10.284 1.455-.137 1.505 1.2.881 1.738-.41.372-1.206 1.245-1.984 1.53-6.988 2.57-.635 18.15-.635 18.15s-.169-8.66.911-11.297c0 0-2.481 23.75-.827 35.795l6.387-13.571 6.859 21.6s3.308-19.684 3.726-28.905c.417-9.222-.709-20.761-5.262-21.968 0 0-6.211-2.206-3.845-6.934z" fill="#C7D9E8"/>
            <path d="M242.076 144.579l3.302 1.787.644 1.485s1.286 6.459-3.102 7.343c0 0 .766-5.345-.904-4.264l-.51.995a3.279 3.279 0 0 1-1.676-2.778 9.126 9.126 0 0 0-3.784-.743 1.369 1.369 0 0 1-1.08-1.31" fill="#0A628E"/>
            <path d="M245.523 147.119s2.63 6.466-2.604 8.078c0 0 .766-5.344-.904-4.263l-.51.991a3.279 3.279 0 0 1-1.676-2.778" fill="#0A4177"/>
            <path d="M235.138 204.192s-1.789 0-2.271.802c-.483.802 1.313 1.872 2.27-.802zm13.804 7.494s-2.205 2.14-.689 2.674c1.517.535 2.06-.783.69-2.674z" fill="#1F9CE8"/>
            <path d="M235.378 178.495s-1.01 15.565.215 24.11l6.437-13.41s4.014 14.03 6.713 21.14c0 0 4.213-18.975 3.899-30.678-.031 0-16.072 2.203-17.263-1.162zm5.42-11.369s3.388 4.112 3.005 5.753l2.214-1.322s-3.014-5.103-5.22-4.43z" fill="#1D5577"/>
            <path d="M236.145 179.78s4.595 7.123 16.01 7.209c0 0 .54-3.755.487-4.829l-16.497-2.38z" fill="#12435B"/>
            <path d="M232.538 165.926c1.47-.055 3.591 2.883 3.591 2.883l-.765 9.686c1.183 4.676 17.262 5.266 17.262 5.266 1.39-13.916-2.462-23.372-2.462-23.372-.16-2.488-5.327-2.544-5.327-2.544l-5.744 2.544-.988-1.96-4.107 1.667s-1.953 3.398-1.46 5.83z" fill="#44BEEB"/>
            <path d="M245.695 166.176c-.069.2 4.362 15.843 4.362 15.843s8.926-5.749-.157-20.716l-4.205 4.873z" fill="#1D5577" opacity=".23"/>
            <path d="M248.996 171.264s3.615 7.093 6.652 2.191c0 .011.532-2.5-6.652-2.191z" fill="#1D5577"/>
            <path d="M247.185 179.219s.501-2.79-1.191-3.636c-1.693-.847-3.546-2.076-3.784-2.696-.237-.62-2.466-1.701-4.212-1.939l2.945 4.32s3.17 5.21 6.242 3.951z" fill="#1D5577" opacity=".23"/>
            <path d="M245.194 159.32s10.216 20.426 5.801 23.98c0 0 9.305-8.85 1.256-16.408 0 0 1.038-8.653-7.057-7.572z" fill="#C7D9E8"/>
            <path d="M244.462 157.496l4.534 13.783s6.326 0 6.652 2.19c0 0-3.022-13.224-6.17-14.918 0-.015-1.696-.795-5.016-1.055z" fill="#44BEEB"/>
            <path d="M242.015 189.195s-3.282-6.059-3.557-2.756c-.276 3.302.551 6.314-1.011 7.079 0 0-1.475.174-1.318 3.892 0 0 .142 3.023-.551 5.2l6.437-13.415zm1.348 4.605s5.162 9.285 7.119 6.176l-1.658 10.66-5.46-16.836z" fill="#12435B"/>
            <path d="M237.611 156.686c-.344.071 2.742.171 3.772-1.856 0 0 1.842-2.058 1.122 1.418-.72 3.477-3.706 6.058-4.595 5.033-.888-1.025 1.497-4.958-.299-4.594zm1.134 10.67s2.83 1.71 4.005 2.133l2.535 1.41s-2.048 1.602-6.54-3.542zM234.75 175.19l-.447-8.45 2.045-4.557-.854 14.834z" fill="#12435B" opacity=".21"/>
        </g>
        <g fill-rule="nonzero">
            <path d="M386.757 203.071s-4.046-2.824.335-6.57c1.11-.954 3.51 6.466-.335 6.57z" fill="#1D5577"/>
            <path d="M387.099 196.501s3.921-1.97 4.461-4.04c.202-.763 4.564-1.399 5.214-.8l4.61 1.328-14.285 3.512z" fill="#44BEEB"/>
            <path d="M397.314 188.555s2.856-4.707-2.852-5.382c-5.708-.674-4.64 8.815-2.495 8.61 1.251-.11 1.293 1.009.76 1.46-.538.462-1.109.89-1.707 1.282-4.16 2.572-14.216 5.801-14.216 5.801s10.531 1.288 14.452-.057c0 0-2.141 19.908-.715 30l5.507-11.373L401.954 237s2.856-16.486 3.21-24.225c.353-7.738-.609-17.404-4.53-18.412-.003.007-5.354-1.844-3.32-5.808z" fill="#C7D9E8"/>
            <path d="M390.948 184.888s-.932-.27-1.202-1.733c-.38-2.016 3.358.449 3.636-.226l1.654-.94 2.084.359.894.563.89 1.514s-.76 3.77-2.042 6.153c0 0 .677-4.477-.76-3.588l-.43.84s-.761 3.2-1.45-2.328a8.094 8.094 0 0 0-3.274-.614z" fill="#0A628E"/>
            <path d="M390.142 231.607s-1.521 0-1.955.671c-.434.671 1.148 1.572 1.955-.67zm11.915 6.279s-1.902 1.794-.597 2.246c1.304.452 1.783-.675.597-2.246z" fill="#1F9CE8"/>
            <path d="M390.354 210.07s-.87 13.045.183 20.206l5.549-11.24s3.457 11.76 5.784 17.716c0 0 3.617-15.9 3.358-25.71 0 0-13.831 1.848-14.873-.972zm4.682-9.533s2.925 3.445 2.594 4.826l1.901-1.112s-2.593-4.273-4.495-3.713zm-7.754-3.727s.597 3.394-.43 4.85l1.35-.408s.152-2.677-.92-4.442z" fill="#1D5577"/>
            <path d="M391.013 211.139s3.947 5.974 13.797 6.042c0 0 .468-3.146.418-4.043l-14.214-1.999z" fill="#12435B"/>
            <path d="M386.757 203.071c1.27-.05 4.256-1.123 4.256-1.123l-.658 8.122c1.019 3.918 14.873 4.413 14.873 4.413 1.198-11.664-2.122-19.589-2.122-19.589-.137-2.084-4.59-2.135-4.59-2.135l-4.944 2.135-.856-1.643-5.628 3.25s2.723 6.483-.331 6.57z" fill="#44BEEB"/>
            <path d="M397.064 198.353c-.062.168-2.83 10.82-2.83 10.82s11.675-.165 8.644-13.515l-5.815 2.695z" fill="#1D5577" opacity=".23"/>
            <path d="M394.409 200.161s2.772 10.43 5.389 6.322c0 0 2.183-1.863-5.39-6.322z" fill="#1D5577"/>
            <path d="M397.63 196.649s-2.502-.259-3.16 1.162c-.658 1.42-1.643 2.989-2.18 3.229-.536.24-1.372 2.092-1.487 3.512l3.667-2.619s4.445-2.863 3.16-5.284z" fill="#1D5577" opacity=".23"/>
            <path d="M398.824 193.997s-6.815 10.168-10.622 13.16c0 0 10.128-.312 13.455-6.544 0 0 4.142-7.513-2.833-6.616z" fill="#C7D9E8"/>
            <path d="M398.508 192.759l-4.107 7.402s5.747 3.968 5.39 6.322c0 0 5.323-5.906 3.308-11.589.007 0 .08-2.511-4.59-2.135z" fill="#44BEEB"/>
            <path d="M396.086 219.036s-2.83-5.077-3.065-2.31c-.236 2.766.475 5.288-.871 5.934 0 0-1.27.147-1.141 3.264 0 0 .125 2.533-.476 4.352l5.553-11.24zm1.164 3.861s4.445 7.774 6.13 5.176l-1.43 8.934-4.7-14.11z" fill="#12435B"/>
            <path d="M392.29 191.791c0-.284 2.366.14 3.252-1.557 0 0 1.586-1.726.966 1.19-.62 2.918-2.426 5.935-3.195 5.077-.768-.857-.89-1.155-1.023-4.71zm-4.088 15.366s7.485-3.376 8.45-5.238l1.902 1.883s-2.628 2.831-10.352 3.355zM380.482 200.16l7.047-.925v2.218l-8.747-.915z" fill="#12435B" opacity=".21"/>
        </g>
        <g fill-rule="nonzero">
            <path d="M282.037 173.529c-.22-.27-5.267-5.921 1.944-7.668 5.483-1.318 5.962 7.123 4.094 8.03-4.075 1.984.672 2.328.672 2.328l4.611 4.337s8.433 3.156 9.624-5.799c0 0 3.07 12.511-9.624 9.584l-2.277 1.288c.197 2.822.07 5.657-.38 8.452 0 0 2.24 20.124 1.97 23l-5.772-17.739-4 22.204s-2.38-14.395-2.004-21.59c-.125-1.11.482-3.744 1.234-7.57 0 0-2.232-11.824-2.095-14.455 0 0 .421-2.268 2.068-1.732a1.983 1.983 0 0 0-.064-2.67z" fill="#C7D9E8"/>
            <path d="M281.385 194.085s-4.619 5.27 1.457 28.69l5.169-17.7s4.087 9.844 4.675 12.009c0 0 .968-18.026-1.354-24.701l-9.947 1.702z" fill="#1D5577"/>
            <path d="M280.39 195.828s7.336 1.258 11.826.451c0 0 .38-1.006-.983-3.404l-10.843 2.953z" fill="#12435B"/>
            <path d="M282.117 176.193s2.812 3.271 4.9 3.734c0 0 3.002-2.99 1.358-3.886 0 0 4.668 3.512 9.268 4.37l-.133 6.14s-4.034.433-6.41-.922l1.234 6.75s-4.224 3.179-11.955 3.449c0 0 .626-1.714.28-4.556-.238-1.957-2.807-4.266-2.85-6.487-.075-5.132.737-9.817 4.308-8.592z" fill="#FDCC4A"/>
            <path d="M286.269 165.087s-4.975-2.66-6.622 2.295l-1.264 6.513 5.617-.415v-5.147a7 7 0 0 1 1.738.4c.345.155 3.01-1.58 3.01-1.58s-.191-2.84-2.48-2.067z" fill="#1D5577"/>
            <path d="M288.011 205.072c.615-.47 1.305-4.186 2.137-5.632a11.938 11.938 0 0 0 1.074 5.74s1.074 4.577 0 7.84l-3.211-7.948z" fill="#12435B"/>
        </g>
        <path d="M168.025 145.555c0-1.654-1.36-3.784-3.024-4.74L31.97 64.491c-1.083-.622-2.039-.593-2.57-.038l-.45-.424-5.809 3.351 5.809 17.786v182.646c0 1.653 1.36 3.783 3.02 4.736l126.287 72.458 3.954 7.682 5.808-3.351-.131-.935c.091-.256.136-.526.131-.797l.007-202.051z" fill="#77C3FC" fill-rule="nonzero"/>
        <g fill-rule="nonzero">
            <path d="M109.604 39.731c0-8.044-6.562-18.33-14.656-22.973-8.095-4.644-14.656-1.888-14.656 6.156 0 4.096 1.697 8.758 4.43 12.974l-.12-.07 10.33 16.85 10.332-4.994-.09-.052c2.732-1.091 4.43-3.798 4.43-7.891z" fill="#0B86D1"/>
            <path d="M107.131 40.718c0-8.048-6.562-18.333-14.656-22.977-8.095-4.644-14.657-1.888-14.657 6.156 0 4.096 1.698 8.762 4.43 12.974l-.12-.07 10.332 16.85 10.331-4.994-.09-.052c2.732-1.08 4.43-3.798 4.43-7.887z" fill="#44BEEB"/>
            <path fill="#FFF" d="M97.121 35.3l-7.18.215-.187-8.453z"/>
            <path d="M93.625 4.39C78.662-4.196 66.535.898 66.535 15.768c0 6.666 2.436 14.151 6.476 21.182l6.295-.678c-3.226-5.31-5.197-11.07-5.197-16.158 0-10.71 8.735-14.382 19.516-8.193 10.781 6.189 19.516 19.879 19.516 30.592 0 5.087-1.97 8.584-5.193 10.192l6.295 7.903c4.036-2.388 6.472-7.076 6.472-13.75.007-14.873-12.127-33.884-27.09-42.467z" fill="#D33A2F"/>
            <path d="M112.954 39.705l7.469 3.027c-1.924-14.095-13.187-30.536-26.798-38.356-14.963-8.588-27.09-3.493-27.09 11.376 0 6.666 2.436 14.151 6.476 21.182l6.295-.677c-3.226-5.31-5.197-11.072-5.197-16.159 0-10.71 8.738-14.642 19.516-8.192 10.164 6.074 17.206 16.203 19.329 27.799z" fill="#E06E31"/>
            <path d="M109.668 29.468c1.967.085 4.575.25 6.767.398-4.819-10.218-13.235-19.983-22.81-25.475-14.963-8.588-27.09-3.494-27.09 11.376 0 6.666 2.436 14.151 6.476 21.182l6.295-.678c-3.226-5.31-5.197-11.07-5.197-16.158 0-10.71 8.735-14.382 19.516-8.193 6.648 3.81 12.52 10.483 16.043 17.548z" fill="#FDCC4A"/>
            <path d="M108.884 17.82c-4.347-5.445-9.6-10.182-15.259-13.43-14.963-8.586-27.09-3.492-27.09 11.378 0 6.666 2.436 14.151 6.476 21.182l6.295-.678c-3.226-5.31-5.197-11.07-5.197-16.158 0-10.71 8.735-14.382 19.516-8.193 4.186 2.402 8.064 5.94 11.242 9.992l4.017-4.093z" fill="#19AB4F"/>
            <path d="M87.389 9.35L84.549.727C74.056-1.59 66.535 4.056 66.535 15.76c0 6.666 2.436 14.15 6.476 21.182l6.295-.678c-3.226-5.31-5.197-11.071-5.197-16.158 0-8.536 5.557-12.602 13.28-10.755z" fill="#168CCA"/>
            <path d="M74.131 19.2l-7.542-5.067a25.581 25.581 0 0 0-.053 1.628c0 6.666 2.436 14.15 6.476 21.182l6.295-.678c-3.227-5.311-5.198-11.072-5.198-16.159 0-.302.007-.607.022-.905z" fill="#44BEEB"/>
        </g>
        <path d="M159.197 352.227l-133.033-76.34c-1.664-.954-3.024-3.084-3.024-4.738V69.113c0-1.653 1.36-2.234 3.024-1.27l133.033 76.323c1.66.957 3.02 3.087 3.02 4.74v202.051c0 1.65-1.36 2.224-3.02 1.27z" fill="#2A6DC2" fill-rule="nonzero"/>
        <path d="M147.156 253.955v-68.467c0-1.825-1.499-4.16-3.324-5.214L36.16 118.493c-1.837-1.054-3.324-.429-3.324 1.396v68.491l114.321 65.575z" fill="#44BEEB" fill-rule="nonzero"/>
        <path d="M38.456 191.542v-68.298c0-1.824 1.499-2.45 3.324-1.396l102.963 59.073a5.86 5.86 0 0 0-.9-.644L36.16 118.493c-1.837-1.054-3.324-.429-3.324 1.396v68.491l5.62 3.221v-.06z" fill="#235CA7" fill-rule="nonzero"/>
        <path fill="#FFF" fill-rule="nonzero" d="M89.143 188.116l-3.56-2.04V174.46l3.56 2.04zM94.412 191.14l-3.557-2.041v-11.615l3.557 2.04z"/>
        <path fill="#E4F1F4" fill-rule="nonzero" d="M32.973 186.083v3.102L147.336 254.8v-3.102z"/>
        <path fill="#D33A2F" fill-rule="nonzero" d="M33.003 186.101v3.102l35.975 20.638v-3.098z"/>
        <path fill="#245DA6" fill-rule="nonzero" d="M51.65 102.156L35.046 92.63v-3.084l16.604 9.526zM16.605 233.053L0 223.527v-3.083l16.605 9.525zM68.041 263.63l-16.604-9.526v-3.083l16.604 9.526zM119.16 292.36l-16.609-9.525v-3.087l16.609 9.53zM75.933 131.806l-40.887-23.461v-7.593l40.887 23.457z"/>
        <path d="M145.605 299.272l-41.443-23.773c-.884-.51-1.607-1.646-1.607-2.525v-23.621c0-.88.723-1.185 1.607-.678l41.443 23.777c.884.507 1.607 1.643 1.607 2.522v23.624c0 .88-.723 1.185-1.607.674z" fill="#44BEEB" fill-rule="nonzero"/>
        <path fill="#FFF" fill-rule="nonzero" d="M127.243 274.601l-4.497-5.415-.221 5.158z"/>
        <path d="M94.49 270.132l-41.442-23.773c-.884-.51-1.611-1.643-1.611-2.525v-23.621c0-.88.727-1.185 1.611-.674l41.442 23.773c.889.51 1.612 1.646 1.612 2.525v23.621c-.004.883-.727 1.185-1.612.674z" fill="#44BEEB" fill-rule="nonzero"/>
        <path fill="#FFF" fill-rule="nonzero" d="M76.124 245.461l-4.493-5.415-.224 5.162z"/>
        <path d="M43.05 240.955L1.611 217.181C.727 216.671 0 215.535 0 214.656v-23.635c0-.88.727-1.185 1.611-.678L43.05 214.12c.888.507 1.611 1.643 1.611 2.525v23.621c-.01.894-.723 1.2-1.611.69z" fill="#44BEEB" fill-rule="nonzero"/>
        <path fill="#FFF" fill-rule="nonzero" d="M24.688 216.284l-4.493-5.415-.225 5.158z"/>
        <path d="M91.481 60.6v28.946" stroke="#77C3FC" stroke-linecap="round" stroke-linejoin="round" stroke-dasharray="8"/>
        <g transform="translate(295.225 96)">
            <path d="M73.045 71.15a3.028 3.028 0 0 0-1.444-2.29L8.04 31.955c-.518-.303-.975-.288-1.228-.019l-.216-.205-2.775 1.62 2.775 8.605v88.296a3.017 3.017 0 0 0 1.444 2.293l60.34 35.05 1.89 3.715 2.775-1.62-.064-.453c.042-.12.064-.247.064-.374V71.15z" fill="#77C3FC" fill-rule="nonzero"/>
            <path d="M68.826 171.081L5.264 134.177a3.028 3.028 0 0 1-1.443-2.29V34.189c0-.801.65-1.074 1.443-.614L68.826 70.48c.814.49 1.35 1.34 1.443 2.29v97.698c0 .797-.643 1.074-1.443.613z" fill="#2A6DC2" fill-rule="nonzero"/>
            <path d="M62.959 159.034L9.85 128.202a2.534 2.534 0 0 1-1.205-1.916V44.661c0-.67.543-.902 1.205-.517l53.11 30.837a2.53 2.53 0 0 1 1.205 1.915v81.626c0 .67-.543.898-1.205.512z" fill="#245DA6" fill-rule="nonzero"/>
            <path d="M13.572 125.957a2.534 2.534 0 0 1-1.206-1.916V45.604l-2.515-1.46c-.662-.374-1.205-.153-1.205.517v81.625c.08.794.526 1.504 1.205 1.916l53.108 30.832c.662.374 1.205.157 1.205-.512v-3.192l-50.592-29.373z" fill="#235CA7" fill-rule="nonzero"/>
            <path d="M45.131 19.983c0-3.891-3.136-8.864-7.001-11.108-3.866-2.245-7.006-.913-7.006 2.993 0 1.979.815 4.235 2.12 6.274l-.059-.034 4.937 8.145 4.937-2.413-.045-.026c1.314-.539 2.117-1.852 2.117-3.831z" fill="#0B86D1" fill-rule="nonzero"/>
            <path d="M43.956 20.458c0-3.891-3.133-8.864-7.002-11.108-3.87-2.245-7.002-.913-7.002 2.993 0 1.979.811 4.239 2.117 6.274l-.06-.034 4.937 8.15 4.937-2.418-.044-.026c1.298-.539 2.117-1.86 2.117-3.831z" fill="#44BEEB" fill-rule="nonzero"/>
            <path d="M39.491 20.933l-5.55-3.221v-4.374l1.19-.374.904-.303 3.456 2.009v6.263zm-5.108-3.408l4.67 2.708v-5.357l-2.85-1.654-.782.262-1.038.31v3.73z" fill="#FFF" fill-rule="nonzero"/>
            <path fill="#FFF" fill-rule="nonzero" d="M36.351 15.048l-2.176-1.261v-.445l1.737 1.01v-1.53l.44.258zM38.003 17.15l-2.582-1.5v-.441l2.582 1.5zM38.003 17.996l-2.582-1.5v-.442l2.582 1.5zM38.003 18.879l-2.582-1.497v-.441l2.582 1.496z"/>
            <g fill-rule="nonzero">
                <path d="M45.377 14.977c.986.04 2.295.127 3.393.202-2.415-5.186-6.634-10.14-11.437-12.927-7.5-4.355-13.582-1.772-13.582 5.773 0 3.367 1.223 7.187 3.247 10.745l3.155-.34c-1.614-2.698-2.604-5.612-2.604-8.201 0-5.433 4.379-7.296 9.784-4.157 3.334 1.935 6.277 5.32 8.044 8.905z" fill="#FDCC4A"/>
                <path d="M44.986 9.136a27.846 27.846 0 0 0-7.653-6.816c-7.5-4.355-13.582-1.77-13.582 5.773 0 3.367 1.223 7.187 3.247 10.749l3.155-.345c-1.614-2.693-2.604-5.612-2.604-8.197 0-5.436 4.379-7.3 9.784-4.16a20.221 20.221 0 0 1 5.64 5.065l2.013-2.069z" fill="#19AB4F"/>
                <path d="M34.208 4.845L32.795.464c-5.265-1.175-9.033 1.691-9.033 7.629 0 3.367 1.224 7.187 3.248 10.749l3.154-.345c-1.614-2.693-2.604-5.612-2.604-8.197-.011-4.333 2.775-6.398 6.648-5.455z" fill="#168CCA"/>
                <path d="M27.56 9.836L23.778 7.27c0 .27-.026.543-.026.824 0 3.367 1.223 7.187 3.247 10.749l3.155-.345c-1.614-2.693-2.604-5.612-2.604-8.197 0-.157.004-.31.011-.464z" fill="#44BEEB"/>
            </g>
            <path d="M24.926 104.096L1.956 90.762c-1.048-.61-1.911-1.976-1.911-3.03V73.285c0-1.059.863-1.422 1.912-.812l22.97 13.334c1.048.61 1.908 1.976 1.908 3.03v14.446c.007 1.059-.86 1.422-1.909.812zm-.007 22.306L1.96 113.072c-1.053-.61-1.916-1.98-1.916-3.038V95.599c0-1.058.863-1.425 1.916-.815l22.958 13.323c1.053.61 1.916 1.979 1.916 3.038v14.434c.007 1.066-.863 1.433-1.916.823z" fill="#44BEEB" fill-rule="nonzero"/>
            <path fill="#2A6DC2" fill-rule="nonzero" d="M28.814 61.691l-13.847-8.044v7.633l13.847 8.04zM30.235 62.514v7.633L55.559 84.85v-7.632zM23.04 69.68l-8.073-4.689v7.633l8.073 4.684zM41.217 80.234l-16.756-9.732v7.633l16.756 9.727zM42.635 81.057v7.628l12.924 7.506v-7.63z"/>
            <path fill="#1F9CE8" fill-rule="nonzero" d="M14.186 83.305L3.832 77.293v4.714l10.354 6.012zM15.064 83.814v4.714l7.983 4.64V88.45z"/>
            <g fill="#1F9CE8" fill-rule="nonzero">
                <path d="M17.82 91.937L3.832 83.814v4.715L17.82 96.65zM7.318 101.519L3.832 99.49v4.718l3.679 2.136zM9.014 102.042v4.715l7.988 4.639v-4.718zM23.81 117.681L3.992 106.177v4.714l19.818 11.504z"/>
            </g>
            <ellipse fill="#2A6DC2" fill-rule="nonzero" transform="rotate(-36.95 34.287 103.781)" cx="34.287" cy="103.781" rx="1.131" ry="2.013"/>
            <path d="M58.8 118.904v-2.742L38.196 104.19v2.581c4.424 2.41 14.655 8.545 20.604 12.133zm-4.558-11.411v-2.753L33.64 92.767v2.62c4.424 2.382 14.654 8.518 20.603 12.106z" fill="#2A6DC2" fill-rule="nonzero"/>
            <ellipse fill="#2A6DC2" fill-rule="nonzero" transform="rotate(-36.95 34.286 110.367)" cx="34.286" cy="110.367" rx="1.131" ry="2.013"/>
            <ellipse fill="#2A6DC2" fill-rule="nonzero" transform="rotate(-36.95 34.286 117.165)" cx="34.286" cy="117.165" rx="1.131" ry="2.013"/>
            <ellipse fill="#2A6DC2" fill-rule="nonzero" transform="rotate(-36.95 34.285 123.755)" cx="34.285" cy="123.755" rx="1.131" ry="2.013"/>
            <path d="M58.8 138.883v-2.742l-20.604-11.973v2.582c4.424 2.41 14.655 8.545 20.604 12.133zm-7.694-20.596l-12.91-7.483v2.586c2.817 1.526 7.992 4.568 12.91 7.505v-2.608zm4.01 9.121l-16.908-9.82v2.585c3.6 1.953 11.056 6.382 16.908 9.896v-2.66z" fill="#2A6DC2" fill-rule="nonzero"/>
            <path d="M36.876 30.204v13.753" stroke="#77C3FC" stroke-width=".69" stroke-linecap="round" stroke-linejoin="round" stroke-dasharray="5.5"/>
        </g>
        <g>
            <path d="M274.544 353.065l-56.166-32.983c-2.41-1.415-4.383-4.58-4.383-7.032V212.598c0-2.452 1.972-3.303 4.383-1.887l56.166 32.997c2.41 1.415 4.383 4.58 4.383 7.033v100.451c0 2.441-1.972 3.292-4.383 1.873z" fill="#E6F9FF" fill-rule="nonzero"/>
            <path d="M275.275 243.336l-56.166-32.986c-1.461-.85-2.744-.876-3.543-.23.763-.204 1.742-.022 2.812.602l56.166 32.986c2.41 1.415 4.383 4.58 4.383 7.033v100.451c0 .977-.314 1.69-.84 2.118.957-.257 1.57-1.115 1.57-2.49V250.358c0-2.452-1.972-5.617-4.382-7.022z" fill="#44BEEB" fill-rule="nonzero"/>
            <path d="M243.413 254.908l6.242-12.036c-8.525-8.511-18.234-10.03-21.682-3.38-3.448 6.65.669 18.946 9.194 27.454 8.525 8.507 18.234 10.03 21.682 3.377 1.048-2.018 1.395-4.562 1.132-7.36l-16.568-8.054z" fill="#19AB4F" fill-rule="nonzero"/>
            <path d="M253.618 246.561l-2.984 5.751 8.796 4.417a18.934 18.934 0 0 0-5.812-10.168z" fill="#0C79A8" fill-rule="nonzero"/>
            <path d="M266.206 325.751l-23.944-14.057c-.898-.528-1.632-1.71-1.632-2.623 0-.914.73-1.23 1.632-.702l23.943 14.057c.899.528 1.637 1.71 1.637 2.623 0 .914-.738 1.23-1.637.702zm0-7.419l-23.945-14.068c-.898-.528-1.632-1.71-1.632-2.623 0-.914.73-1.23 1.632-.702l23.943 14.057c.899.528 1.637 1.71 1.637 2.623 0 .925-.738 1.241-1.637.713zm0-7.419l-23.945-14.057c-.898-.528-1.632-1.71-1.632-2.623 0-.914.73-1.234 1.632-.702l23.945 14.057c.899.528 1.637 1.71 1.637 2.623 0 .914-.738 1.23-1.637.702z" fill="#FFF" fill-rule="nonzero"/>
            <path d="M252.263 299.4l-10-5.87c-.9-.53-1.633-.211-1.633.703 0 .914.73 2.095 1.632 2.623l10.001 5.87V299.4z" fill="#FDCC4A" fill-rule="nonzero"/>
            <path d="M261.398 312.184l-19.136-11.234c-.898-.528-1.632-.212-1.632.702 0 .914.73 2.095 1.632 2.623l19.136 11.234v-3.325z" fill="#E06E31" fill-rule="nonzero"/>
            <path d="M257.359 317.233l-15.097-8.865c-.898-.528-1.632-.212-1.632.702 0 .914.73 2.095 1.632 2.623l15.097 8.864v-3.325z" fill="#168CCA" fill-rule="nonzero"/>
            <path fill="#CCDEE2" fill-rule="nonzero" d="M234.709 307.663l-15.111-8.872v-2.285l15.11 8.876zM238.38 302.112l-18.782-11.03v-2.28l18.782 11.03zM261.654 289.756l-18.782-11.03v-2.28l18.782 11.03zM231.597 290.053l-11.999-7.047v-2.281l11.999 7.047z"/>
            <path d="M213.995 260.634h-4.146a1.077 1.077 0 0 0-1.096.98s-.076.692.73 1.643l4.527 5.312-.015-7.935z" fill="#E6F9FF" fill-rule="nonzero"/>
            <path d="M209.301 260.444h4.709" stroke="#44BEEB" stroke-width="2" stroke-linecap="round" stroke-linejoin="round"/>
        </g>
        <g fill-rule="nonzero">
            <path d="M380.803 148.67s-2.458 2.422-2.229 5.601l1.795 1.34-2.978 2.256s.822 3.882 0 9.592c-.821 5.71-.072 19.5-.072 19.5l3.32-11.871 2.502 2.14s1.141 3.235 1.902-4.826c.357-3.731-4.457-3.984-.76-8.031.456-.5 1.673-3.495 1.589-3.927-1.004-5.07-1.14-4.845-1.902-4.796-.76.049 7.203-7.523-3.167-6.978z" fill="#C7D9E8"/>
            <path d="M384.727 152.281c-.235-.455-1.608-.58-2.521 1.241-.913 1.821-3.632.753-3.632.753l1.795 1.338-.247 3.972 2.902-2.358s2.608-3.24 1.703-4.947z" fill="#12435B" opacity=".21"/>
            <path d="M377.391 157.878a91.348 91.348 0 0 0-4.373 11.876l6.244-5.774s2.872-12.65-1.87-6.102z" fill="#C7D9E8"/>
            <path fill="#12435B" opacity=".21" d="M373.018 169.754l4.624-7.219-.738 3.623z"/>
            <path d="M383.351 155.836s-3.222 3.562-3.765 3.604l.79-3.83s-6.643 3.307-2.772 5.477l-.118 6.575 7.226.207s-.825-2.633 1.928-5.778c-.019 0 1.99-7.14-3.29-6.255z" fill="#19AB4F"/>
            <path d="M377.155 166.933s-2.13 4.48.156 20.038l3.32-11.872 1.617 13.275s5.522-16.386 2.445-20.505l-7.538-.936z" fill="#1D5577"/>
            <path d="M376.817 187.622a2.274 2.274 0 0 1-1.278 1.967l2.282-.673s.274-3.262-1.004-1.294zm5.393 1.324s-.59 2.46-2.012 2.757l1.422-.297s3.092.481.59-2.46zm4.183-38.888s.905 2.874-.996 3.698c0 0-2.32 1.926-1.18-1.606l-.38-1.558-.707.226-.719-.342-.293-.422-.562.264-1.438-.922h-.472s1.845-2.22 4.237-1.283l1.37 1.061" fill="#1D5577"/>
            <path d="M384.492 154.079a9.479 9.479 0 0 0-2.807 4.966c.586-.44 1.207-.832 1.856-1.174-.411.816-1.48 1.576-1.309 2.821 0 0 1.643-1.505 2.663-2.411 0 0 .574-2.51.76-3.254.19-.602 1.586-2.234.57-3.55l-.97 1.429-.763 1.173z" fill="#1D5577"/>
            <path d="M379.548 159.583s1.076 1.94 4.335 2.35c-.316.219-2.4 2.746-4.335-2.35z" fill="#12435B" opacity=".21"/>
            <path d="M385.72 157.239c-1.259-.278-7.48 13.045-7.48 13.045s7.872-6.677 8.366-8.193c.388-1.105.586-4.525-.886-4.852z" fill="#C7D9E8"/>
            <path d="M378.239 170.284l8.588-11.24s.817 3.491-2.96 6.188l-5.628 5.052z" fill="#12435B" opacity=".21"/>
            <path d="M380.631 175.099s-.33-3.822-1.741-2.035a7.731 7.731 0 0 0-1.579 6.06c.331 2.445 0 7.847 0 7.847l3.32-11.872z" fill="#12435B"/>
            <path d="M379.905 155.264s-1.323.29-1.388 2.577c0 0-.11 1.222-.278 1.41.526-.229.887-.72.943-1.286l.38.41s.1-1.505.628-1.979l.164-.786-.449-.346z" fill="#1D5577"/>
        </g>
        <g fill-rule="nonzero">
            <path d="M305.268 252.327s.757-8.597 3.047-9.437c.884-.326 5.169-1.629 5.883-.936l5.204 1.545-14.133 8.828z" fill="#E06E31"/>
            <path d="M314.818 238.348s3.223-5.475-3.22-6.238c-6.442-.763-5.237 10.244-2.819 10.017 1.414-.132 1.463 1.17.854 1.695-.377.345-1.602.77-1.927 1.49-1.89 4.183-4.583 16.474-4.583 16.474s8.559-5.702 8.415-9.932c0 0-4.07 18.29-6.741 34.996l8.585-13.208 9.742 12.475s-2.35-12.475-2.022-20.118c.378-8.622 1.89-19.71-2.54-20.884 0-.011-6.042-2.158-3.744-6.766z" fill="#C7D9E8"/>
            <path d="M307.631 234.069s-.492-.968 1.511-2.337c2.003-1.368 2.464-1.255 3.843-.902h1.081l.533.267 2.23.958.498 1.941s-.457 5.753-3.023 6.663c0 0 .756-5.203-.877-4.153l-.487.98a3.196 3.196 0 0 1-1.633-2.708 8.916 8.916 0 0 0-3.676-.709z" fill="#0A628E"/>
            <path d="M317.225 234.862s-.351 4.884-2.917 5.794c0 0 .756-5.203-.877-4.154l-.487.98s-1.334.436-1.334-1.42" fill="#0A4177"/>
            <path d="M304.812 288.516s-1.281-1.141-2.17-.873c-.887.268-.324 2.198 2.17.873zm20.19 2.058s-2.933.76-1.924 1.93c1.01 1.17 2.14.294 1.924-1.93z" fill="#1F9CE8"/>
            <path d="M306.962 263.349s-3.684 8.806-2.165 23.483l8.634-13.062s1.538 10.699 10.71 16.104c0 0-3.024-13.745-.379-25.39-.007 0-15.625 2.142-16.8-1.135zm5.286-11.077s3.3 4 2.929 5.607l2.154-1.288s-2.94-4.968-5.083-4.319z" fill="#1D5577"/>
            <path d="M307.706 264.593s4.04 5.724 15.16 5.805c0 0 .942-2.444.889-3.482l-16.049-2.324z" fill="#12435B"/>
            <path d="M307.457 257.824l-.495 5.525c1.133 4.554 16.793 5.137 16.793 5.137 1.353-13.554-2.397-22.749-2.397-22.749-.159-2.421-5.184-2.476-5.184-2.476l-5.578 2.476-.964-1.908-1.927-.073-1.364 2.873-1.073 5.724s2.864 4.568 2.188 5.47z" fill="#E06E31"/>
            <path d="M316.167 248.588c1.164 2.227-.416 15.54-.416 15.54s8.775-2.015 5.351-17.525l-4.935 1.985z" fill="#351910" opacity=".23"/>
            <path d="M317.195 255.299s6.046 8.678 6.496 3.126c.015 0 .6-2.708-6.496-3.126z" fill="#1D5577"/>
            <path d="M315.77 245.811s3.507 14.735 2.929 19.648c0 0 6.96-4.814 3.748-14.475-.019-.014-.359-9.848-6.677-5.173z" fill="#C7D9E8"/>
            <path d="M315.339 244.754l2.075 10.534s5.6.518 6.488 3.145c0 0 2.267-8.733-2.785-13.683 0 0-1.254-2.652-5.778.004z" fill="#E06E31"/>
            <path d="M313.431 273.77s-3.193-5.9-3.461-2.686c-.269 3.214.536 6.146-.983 6.898a14.818 14.818 0 0 0-2.286 3.42s-1.417 1.772-1.89 5.434l8.62-13.066z" fill="#12435B"/>
            <path d="M309.146 242.109c0-.33 2.672.165 3.67-1.81 0 0 1.794-2.006 1.091 1.38-.703 3.387-2.74 6.898-3.608 5.9-.87-.998-.994-1.343-1.153-5.47z" fill="#351910" opacity=".23"/>
            <path d="M318.831 265.951s3.401-4.895 2.056-9.907c0 .015 6.016.862-2.056 9.907z" fill="#12435B" opacity=".21"/>
            <path d="M324.571 289.819s-1.89 1.067-8.313-8.194c0 0 6.85 4.48 6.688 0 .004 0-.752 4.616 1.625 8.194z" fill="#12435B"/>
            <path d="M307.706 247.752s-1.462.616-1.273 3.434c.189 2.818-.7 7.922-2.007 9.25 0 0 2.6-.807 3.28-4.293 0 0 .552-5.87.616-6.054.064-.183.09-2.998-.616-2.337z" fill="#351910" opacity=".23"/>
            <path fill="#1F9CE8" d="M283.133 221.932v2.205l2.354 1.978zM292.867 215.874v2.209l2.35 1.978z"/>
            <path d="M310.325 251.337s1.772 4.377 4.912 5.555c-.015 0-4.118.66-4.912-5.555z" fill="#351910" opacity=".23"/>
        </g>
        <g fill-rule="nonzero">
            <path fill="url(#f)" d="M.368 110.093l34.223 61.003v-29.121L.368 79.72z" transform="translate(213.677 135.226)"/>
            <path fill="url(#g)" d="M.807 166.466l13.943 24.851 24.154 14.08L.807 136.093z" transform="translate(213.677 135.226)"/>
            <path d="M280.225 178.244s6.928 5.618 15.852 2.813c0 0-3.41 6.176-15.186 5.12 0-.007-7.827-5.269-.665-7.933z" fill="#C7D9E8"/>
            <path d="M288.027 182.105s-1.402-4.671 6.034-.584c-.014 0-.587.22-6.034.584z" fill="#382B03" opacity=".23"/>
            <path d="M283.806 183.409c-.635-.082-3.97-2.876-1.52-4.024 2.45-1.148.914-4.46.914-4.46s.082-1.545 3.503-1.34c0 0-4.138 1.787.294 2.158-.015-.01 1.74 8.28-3.19 7.666z" fill="#382B03" opacity=".23"/>
            <path d="M277.489 181.336s1.06 6.361 5.206 9.018c4.146 2.657.654-.814 1.71-1.68 1.056-.865 2.893.825 4.113-.252 1.22-1.078 0-6.77 0-6.77s-12.791-2.614-11.029-.317z" fill="#382B03" opacity=".23"/>
            <path d="M280.225 177.081s6.556 4.916 10.832 3.968l1.052 5.12s-7.064 1.736-11.961.529c0 0-7.779-5.574.078-9.617z" fill="#FDCC4A"/>
            <path fill="url(#h)" d="M182.462 30.611l34.226 61.003v-29.12L182.462.233z" transform="translate(213.677 135.226)"/>
            <path d="M66.471 118.91v24.692l-24.24-45.359 20.41 11.69a9.543 9.543 0 0 1 3.83 8.978z" fill="url(#i)" transform="translate(213.677 135.226)"/>
        </g>
    </g>
</svg>
