<svg width="449" height="367" xmlns="http://www.w3.org/2000/svg" xmlns:xlink="http://www.w3.org/1999/xlink">
  <defs>
    <path id="a" d="M0 0h496v380H0z"/>
    <linearGradient x1="99.997%" y1="49.988%" x2="-.001%" y2="49.988%" id="c">
      <stop stop-color="#FFF" stop-opacity="0" offset="0%"/>
      <stop stop-color="#D2DDE6" stop-opacity=".18" offset="12%"/>
      <stop stop-color="#7899B4" stop-opacity=".53" offset="39%"/>
      <stop stop-color="#366890" stop-opacity=".79" offset="63%"/>
      <stop stop-color="#0E4A7A" stop-opacity=".94" offset="85%"/>
      <stop stop-color="#003F72" offset="100%"/>
    </linearGradient>
    <linearGradient x1="99.997%" y1="50.017%" x2="0%" y2="50.017%" id="d">
      <stop stop-color="#FFF" stop-opacity="0" offset="0%"/>
      <stop stop-color="#D2DDE6" stop-opacity=".18" offset="12%"/>
      <stop stop-color="#7899B4" stop-opacity=".53" offset="39%"/>
      <stop stop-color="#366890" stop-opacity=".79" offset="63%"/>
      <stop stop-color="#0E4A7A" stop-opacity=".94" offset="85%"/>
      <stop stop-color="#003F72" offset="100%"/>
    </linearGradient>
  </defs>
  <g transform="translate(-46)" fill="none" fill-rule="evenodd">
    <mask id="b" fill="#fff">
      <use xlink:href="#a"/>
    </mask>
    <g mask="url(#b)">
      <g transform="translate(46)" fill-rule="nonzero">
        <rect fill="#CDE0E8" x="90" y="59" width="138" height="87" rx="11.18"/>
        <rect fill="#E1EAEF" x="80" y="4" width="82" height="45" rx="6.21"/>
        <rect fill="#E1EAEF" y="99" width="82" height="45" rx="6.21"/>
        <rect fill="#E1EAEF" x="59" y="153" width="55" height="30" rx="4.12"/>
        <rect fill="#E1EAEF" x="152" y="153" width="55" height="30" rx="4.12"/>
        <rect fill="#E1EAEF" x="216" y="153" width="55" height="30" rx="4.12"/>
        <rect fill="#E1EAEF" x="312" y="153" width="38" height="30" rx="3.41"/>
        <rect fill="#FFF" x="169" y="72" width="36" height="36" rx="10.57"/>
        <path d="M324 99s-2.919 22.2-30 24c5.009-1.018 13.855-11.593 12.443-22.92" fill="#DAEAF2"/>
        <rect fill="#DAEAF2" x="175" y="15" width="159" height="87" rx="12"/>
        <path d="M295.994 178c-4.292 0-8.62-1.009-11.674-1.927-7.702-2.319-14.844-6.347-15.284-8.617-.256-1.317-4.72-5.63-12.218-8.015-5.709-1.815-16.781-3.433-26.806 6.113-11.6 11.062-23.847 11.542-34.448 1.355l-.563-.546c-3.184-3.114-7.996-7.819-15.227-2.235-8.116 6.267-16.422 5.759-16.774 5.73l.074-1.05c.084 0 8.267.494 16.053-5.514 7.958-6.144 13.358-.848 16.613 2.316l.555.54c1.34 1.288 5.413 5.208 11.248 6.56 7.154 1.657 14.461-1.005 21.72-7.92 10.419-9.92 21.927-8.24 27.857-6.351 7.305 2.319 12.539 6.771 12.932 8.814.285 1.467 6.52 5.39 14.556 7.811 14.06 4.232 19.998.204 21.9-1.723 11.227-11.371 19.75-13.36 28.507-6.656 9.04 6.93 22.437 1.32 22.57 1.265l.415.963c-.57.245-14.1 5.91-23.628-1.401-8.236-6.306-16.346-4.351-27.112 6.554-2.883 2.967-7.066 3.934-11.266 3.934z" fill="#C6DAE5"/>
        <circle fill="#FFF" cx="193.5" cy="33.5" r="6.5"/>
        <path d="M281.718 36h-69.436c-1.26 0-2.282-1.12-2.282-2.5s1.022-2.5 2.282-2.5h69.436c1.26 0 2.282 1.12 2.282 2.5s-1.022 2.5-2.282 2.5z" fill="#00537C" opacity=".19"/>
        <circle fill="#FFF" cx="193.5" cy="84.5" r="6.5"/>
        <path d="M302.72 87h-90.44c-1.259 0-2.28-1.12-2.28-2.5s1.021-2.5 2.28-2.5h90.44c1.259 0 2.28 1.12 2.28 2.5s-1.021 2.5-2.28 2.5z" fill="#00537C" opacity=".19"/>
        <circle fill="#FFF" cx="193.5" cy="66.5" r="6.5"/>
        <path d="M250.685 69h-38.37c-1.279 0-2.315-1.12-2.315-2.5s1.036-2.5 2.315-2.5h38.37c1.279 0 2.315 1.12 2.315 2.5s-1.036 2.5-2.315 2.5zM297.717 52h-69.434c-1.261 0-2.283-1.12-2.283-2.5s1.022-2.5 2.283-2.5h69.434c1.261 0 2.283 1.12 2.283 2.5s-1.022 2.5-2.283 2.5z" fill="#00537C" opacity=".19"/>
        <rect fill="#FFF" opacity=".21" x="115" y="85" width="41" height="41" rx="12"/>
        <rect fill="#FFF" opacity=".6" x="109" y="78" width="41" height="41" rx="12"/>
        <rect fill="#FFF" x="102" y="71" width="41" height="41" rx="12"/>
        <path fill="#00537C" opacity=".19" d="M123.498 89L119 97h9z"/>
        <circle fill="#044572" opacity=".16" cx="80" cy="167" r="2"/>
        <circle fill="#044572" opacity=".16" cx="86" cy="167" r="2"/>
        <circle fill="#044572" opacity=".16" cx="93" cy="167" r="2"/>
        <path fill="#8FAFC6" d="M98 14h10v25H98zM111 23h10v17h-10zM124 0h10v40h-10zM137 9h10v31h-10z"/>
        <circle fill="#CDE0E8" cx="164.5" cy="170.5" r="2.5"/>
        <circle fill="#CDE0E8" cx="187.5" cy="161.5" r="2.5"/>
        <circle fill="#CDE0E8" cx="224.5" cy="170.5" r="2.5"/>
        <circle fill="#CDE0E8" cx="247.5" cy="158.5" r="2.5"/>
        <circle fill="#CDE0E8" cx="336.5" cy="167.5" r="2.5"/>
        <circle fill="#CDE0E8" cx="19.5" cy="113.5" r="5.5"/>
        <path d="M11.027 137s-.989-17 8.973-17v17h-8.973z" fill="#CDE0E8"/>
        <path d="M27.973 137s.985-17-8.973-17v17h8.973zM39 110h27v2H39zM39 127h27v2H39zM39 119h34v3H39z" fill="#CDE0E8"/>
        <g transform="translate(25 74)">
          <path d="M115.487 255.167s147.105-13.682 196.21-10.935c6.848-.15 200.355 13.31 63.63 21.483 0 0-168.07 8.174-174.884 8.174-6.813 0-250.033-7.64-84.956-18.722z" fill="url(#c)" opacity=".24"/>
          <path d="M85.22 286.07s147.105-4.912 196.21-3.93c6.848-.056 200.355 4.785 63.63 7.718 0 0-168.07 2.94-174.887 2.94-6.817 0-250.03-2.744-84.953-6.729z" fill="url(#d)" opacity=".24"/>
          <path d="M211.672 117.3s-47.164 8.531-47.164 13.758c0 0 19.245 1.831 38.662 4.673 0 .003 48.386-2.838 8.502-18.432z" fill="#003F72"/>
          <path d="M217.663 33.909c-.59 2.343-2.208 27.107-2.208 27.107s11.415 8.812 20.604 7.742c9.19-1.07-1.523 18.674-1.523 18.674s-37.866 48.534-37.455 80.685c.41 32.152 56.914 41.55 60.467 35.172 3.552-6.377 18.48-81.552 5.696-125.63-12.783-44.08.225-39.993.225-39.993s-16.848-14.716-23.11-17.042c-6.262-2.326-17.311-8.107-22.696 13.285z" fill="#A6E0FF"/>
          <path d="M124.462 188.06l48.919 54.828s-15.514-51.92-25.788-66.025c0 .003-28.014-10.412-23.131 11.198z" fill="#2361AD"/>
          <path d="M213.823 164.522c-13.755-3.926-83.815-9.192-93.46-.569-9.646 8.623-29.454 86.678-34.771 88.754 5.317-2.062 38.61-44.328 49.79-54.504 0 0 124.998 51.487 126.81 3.23 1.81-48.257-48.369-36.911-48.369-36.911z" fill="#0B63CE"/>
          <g opacity=".42" fill="#0B34AC">
            <path d="M87.99 249.098c-.977 2.08-1.794 3.357-2.416 3.595.994-.382 2.963-2.171 5.581-4.89l-3.166 1.295zM208.039 168.91s6.669 15.6-16.897 19.224c-6.67.607-44.75-18.62-56.54-9.612-8.164 4.778-20.863 12.766-20.26 27.475 0 0-5.991 14.794-9.649 17.506 0 0-10.726 13.257-13.538 24.3 11.4-11.836 35.121-41.335 44.226-49.615 0 0 125 51.488 126.81 3.231.422-11.246-1.98-19.252-5.91-24.907l-48.242-7.602z"/>
          </g>
          <path d="M282.314 74.792c-1.881-.737-23.13 137.436-23.13 137.436s74.83-117.247 23.13-137.436z" fill="#374A63"/>
          <path d="M263.395 72.835l-34.426 4.91-.993 12.198 5.939-1.719-39.593 51.73s-6.273 4.273-.702 8.599c5.57 4.325-5.265 8.65-5.265 8.65l8.775 8.07s66.223 20.767 70.2 33.368c0 0-2.429-18.996-1.755-39.704 0 0 7.325-39.838 2.727-72.747l1.7-1.15s-2.244-12.83-6.607-12.205z" fill="#56BFE5"/>
          <path d="M247.642 108.63s-11.751 40.221-24.752 44.452c-13.001 4.23-6.957 4.374 0 10.345 6.957 5.97 0 10.931 0 10.931s26.925 8.862 44.454 24.311c0 0-1.962-19.813-1.857-29.759 0 0 10.236-93.248-17.845-60.28z" fill="#374A63" opacity=".26"/>
          <path d="M236.372 93.736l-9.993 29.411s-47.656-5.497-58.256-2.985c0 0 58.301 28.594 71.425 36.908l23.62-35.319s9.771-21.22-7.783-33.842c0 0-18.023-6.504-19.013 5.827z" fill="#A6E0FF"/>
          <path d="M169.021 120.183c-1.909.088-11.39 4.07-9.733 10.875 0 0 8.582-8.254 16.108-8.36l-6.375-2.515z" fill="#054E96"/>
          <path d="M174.251 127.164c-1.863-.424-12.067.863-12.285 7.869 0 0 10.488-5.648 17.761-3.73l-5.476-4.139z" fill="#003F72"/>
          <path d="M80.169 256.987c-1.804.488-17.41 4.971-17.41 4.971s20.558 4.94 21.47 2.302c.914-2.639 3.325-9.265-4.06-7.273zM172.405 247.628c-.79 1.403-7.452 13.681-7.452 13.681s15.444-9.626 14.367-11.776c-1.078-2.15-3.675-7.634-6.915-1.905z" fill="#054E96"/>
          <path d="M255.385 87.909s-9.712-3.508-15.272-.491l-3.51 4.795c-.113.501-.19 1.01-.228 1.523l-7.459 20.43 13.282 18.85-7.199 11.52-64.893-24.704a17.51 17.51 0 0 0-1.983.33s58.301 28.594 71.425 36.908l23.62-35.319s9.771-21.22-7.783-33.842z" fill="#374A63" opacity=".09"/>
          <path d="M104.693 87.765l16.115 48.524h43.7c-4.191-4.364-39.54-5.403-39.54-5.403s-13.514-39.483-20.275-43.121z" fill="#054E96"/>
          <path d="M170.587 135.734H1.622s-3.054 11.784 0 12.24c3.053.456 165.09 0 165.09 0s18.02-10.075 3.875-12.24z" fill="#5F7F9D"/>
          <path d="M148.635 211.003s86.8 3.968 108.48 4.431a.583.583 0 0 1 .148 1.144c-17.648 4.504-78.375 17.666-108.628-5.575z" fill="#374A63"/>
          <ellipse fill="#5F7F9D" cx="258.709" cy="211.709" rx="8.034" ry="8.03"/>
          <ellipse fill="#374A63" cx="258.709" cy="211.709" rx="5.714" ry="5.711"/>
          <path d="M247.242 217.69H162.89s-24.942 31.843-20.407 56.659c0 0 5.504 5.907 22.026 5.907h105.51s18.495-.67-22.776-62.566zm15.7 52.326c-95.865 5.511-107.308-1.613-107.308-1.613-6.374-11.805 13.514-42.182 13.514-42.182h69.947c31.724 48.408 23.848 43.795 23.848 43.795z" fill="#374A63"/>
          <path fill="#5F7F9D" d="M31.043 148.276h4.437v141.396h-4.437zM140.043 148.276h4.437v141.396h-4.437z"/>
          <path fill="#000E3F" opacity=".35" d="M31.043 148.276h4.437v30.19h-4.437zM140.043 148.276h4.437v18.102h-4.437z"/>
          <path d="M238.913 86.842c-5.191.48-9.944 27.265-9.944 27.265l28.677 27.244 9.094-27.254s4.563-21.537-12.787-29.991l-15.04 2.736z" fill="#56BFE5"/>
          <path d="M53.668 168.868h-.049a.702.702 0 0 1-.642-.74c.073-.986.172-1.972.291-2.933a.702.702 0 0 1 1.38.175c-.12.937-.218 1.898-.288 2.856a.702.702 0 0 1-.692.642zm1.295-8.335a.85.85 0 0 1-.165-.018.702.702 0 0 1-.512-.838 47.9 47.9 0 0 1 .79-2.845.702.702 0 1 1 1.323.414c-.28.901-.537 1.831-.765 2.757a.702.702 0 0 1-.67.526v.004zm2.742-7.97a.702.702 0 0 1-.632-.983c.404-.89.846-1.782 1.306-2.648a.702.702 0 0 1 1.225.656c-.45.835-.874 1.701-1.267 2.564a.702.702 0 0 1-.632.407v.004zm4.212-7.318a.702.702 0 0 1-.569-1.095 47.638 47.638 0 0 1 1.783-2.354.702.702 0 1 1 1.081.87c-.6.744-1.183 1.512-1.73 2.288a.702.702 0 0 1-.576.287l.01.004zm5.486-6.42a.702.702 0 0 1-.488-1.19 58.825 58.825 0 0 1 2.166-2.006.702.702 0 0 1 .916 1.052 48.575 48.575 0 0 0-2.106 1.951.702.702 0 0 1-.499.19l.01.003zm6.493-5.417a.702.702 0 0 1-.403-1.259 55.448 55.448 0 0 1 2.457-1.649.702.702 0 0 1 .747 1.168c-.81.52-1.614 1.053-2.386 1.61a.702.702 0 0 1-.425.127l.01.003zm7.217-4.416a.702.702 0 0 1-.323-1.309c.86-.449 1.755-.89 2.64-1.312a.702.702 0 1 1 .59 1.253 61.08 61.08 0 0 0-2.584 1.287.702.702 0 0 1-.334.077l.011.004zm7.722-3.477a.702.702 0 0 1-.246-1.343c.913-.351 1.843-.68 2.773-.993a.702.702 0 1 1 .443 1.312c-.91.309-1.826.635-2.72.979a.702.702 0 0 1-.257.042l.007.003zm8.073-2.557a.702.702 0 0 1-.165-1.368c1.811-.45 2.878-.628 2.92-.639a.702.702 0 1 1 .229 1.368s-1.053.18-2.808.618a.702.702 0 0 1-.169.017l-.007.004z" fill="#F948A9"/>
          <path d="M197.077 150.12s8.814 4.803 10.962 7.206c2.148 2.404-1.611 7.54-4.869 3.614-3.257-3.926-6.093-10.82-6.093-10.82zM234.536 87.432l27.687-1.239-33.703 9.472z" fill="#374A63" opacity=".26"/>
          <path d="M219.9 27.17s-19.713-12.875 1.895-23.244c21.607-10.37 12.783 2.862 19.154 9.443 6.37 6.581 9.666 3.333 16.658 6.876 6.992 3.543 12.331 14.836 6.17 21.049-6.16 6.212-8.507 15.084-8.507 15.084s-6.238-5.357-5.487-7.114c.752-1.758 3.995-11.805-2.685-11.742-6.68.063-5.36 6.234-5.36 6.234s-8.697-4.953-8.81-11.026L219.9 27.17z" fill="#054E96"/>
          <path d="M257.607 20.245c-6.992-3.543-10.288-.291-16.658-6.876a8.42 8.42 0 0 1-1.26-1.69c-5.11 2.63-7.417 7.303-5.311 14.572.856 2.996 7.96 3.74 1.558 12.818 1.615 1.274 5.803 4.677 5.803 4.677s-1.32-6.171 5.36-6.234c6.679-.063 3.432 9.98 2.684 11.741-.747 1.761 5.487 7.115 5.487 7.115s2.351-8.851 8.508-15.085c6.156-6.234.821-17.498-6.17-21.038z" fill="#044572" opacity=".8"/>
          <path d="M175.985 138.772c-.087-.701-.537-1.336-1.47-1.87l1.47 1.87zM.302 143.508c-.144 2.312.105 4.284 1.32 4.466 3.057.453 165.09 0 165.09 0a41.496 41.496 0 0 0 6.356-4.466H.302z" fill="#46667F"/>
          <path d="M237.4 38.206s-8.775 2.663-6.669 9.665c2.106 7.002-2.78 16.583-8.796 17.232 0 0 4.163 3.322 14.107 3.655 0 0 5.475-1.298 3.018 7.869l9.046-1.838 10.586-1.284a122.261 122.261 0 0 1-3.77-22.305S253.73 23.658 237.4 38.206z" fill="#374A63" opacity=".09"/>
        </g>
        <path d="M37.557 89.986a.702.702 0 0 1-.684-.572c-.087-.6-.172-1.193-.249-1.78A.702.702 0 1 1 38 87.457c.077.579.158 1.161.246 1.754a.702.702 0 0 1-.583.79.53.53 0 0 1-.105-.014zm-.754-7.29a.702.702 0 0 1-.701-.652A75.83 75.83 0 0 1 36 79.103a.702.702 0 1 1 1.403-.018c0 .948.049 1.917.102 2.882a.702.702 0 0 1-.653.73h-.049zm.056-8.45h-.052a.702.702 0 0 1-.642-.74c.07-.983.165-1.966.28-2.931a.701.701 0 0 1 1.379.168c-.116.94-.207 1.902-.277 2.86a.702.702 0 0 1-.688.643zm1.207-8.346a.702.702 0 0 1-.677-.846c.21-.958.452-1.92.701-2.856a.702.702 0 1 1 1.336.372c-.256.912-.487 1.85-.701 2.786a.702.702 0 0 1-.66.544zm2.455-8.072a.702.702 0 0 1-.642-.951c.35-.916.754-1.825 1.168-2.71a.701.701 0 0 1 1.255.587c-.4.86-.782 1.755-1.136 2.636a.701.701 0 0 1-.645.438zm3.77-7.56a.68.68 0 0 1-.35-.101.702.702 0 0 1-.232-.951 54.305 54.305 0 0 1 1.606-2.478.701.701 0 0 1 1.14.79c-.544.786-1.052 1.597-1.561 2.407a.701.701 0 0 1-.59.323l-.013.01zm4.997-6.829a.701.701 0 0 1-.452-.168.702.702 0 0 1-.07-.98 55.059 55.059 0 0 1 1.981-2.182.701.701 0 0 1 .982 0c.27.267.278.702.018.979a60.757 60.757 0 0 0-1.933 2.127.701.701 0 0 1-.526.224zm5.997-5.966a.701.701 0 0 1-.448-1.221 56.28 56.28 0 0 1 2.29-1.86.701.701 0 0 1 .845 1.102 56.58 56.58 0 0 0-2.238 1.81.701.701 0 0 1-.463.169h.014zm6.815-5.015a.702.702 0 0 1-.351-1.278 56.108 56.108 0 0 1 2.532-1.516.701.701 0 1 1 .68 1.208c-.83.47-1.662.968-2.472 1.48a.719.719 0 0 1-.403.102l.014.004zm7.466-3.99a.702.702 0 0 1-.277-1.33c1.712-.752 2.746-1.092 2.806-1.106a.701.701 0 0 1 .873.446.702.702 0 0 1-.445.874s-1.017.333-2.659 1.052a.719.719 0 0 1-.312.06l.014.004zM331.74 140a.715.715 0 0 1-.74-.688.714.714 0 0 1 .698-.73 12 12 0 0 0 2.361-1.181.727.727 0 0 1 .785-.1c.259.124.417.389.403.672a.71.71 0 0 1-.47.63c-1.056.663-2.465 1.397-3.036 1.397zm7.369-4.492a.718.718 0 0 1-.66-.478.703.703 0 0 1 .221-.778 55.535 55.535 0 0 0 2.272-1.854.726.726 0 0 1 .944.125.702.702 0 0 1-.01.939 56.088 56.088 0 0 1-2.332 1.904.725.725 0 0 1-.442.16l.007-.018zm6.38-5.787a.702.702 0 0 1-.521-1.177 46.036 46.036 0 0 0 1.94-2.184.726.726 0 0 1 .939-.02.703.703 0 0 1 .157.914 52.627 52.627 0 0 1-1.994 2.244.723.723 0 0 1-.529.241l.007-.018zm5.33-6.736a.703.703 0 0 1-.597-1.081 44.836 44.836 0 0 0 1.506-2.482.725.725 0 0 1 .92-.19c.311.171.45.542.324.87a44.373 44.373 0 0 1-1.557 2.564.72.72 0 0 1-.604.34l.008-.021zm3.953-7.598a.706.706 0 0 1-.661-.95c.36-.9.672-1.819.949-2.734a.722.722 0 0 1 .858-.378.709.709 0 0 1 .504.783c-.291.95-.622 1.9-.985 2.836a.719.719 0 0 1-.686.464l.021-.02zm2.196-8.243h-.1a.71.71 0 0 1-.604-.794c.14-.947.24-1.915.302-2.868a.707.707 0 0 1 .362-.687.727.727 0 0 1 .783.049.704.704 0 0 1 .27.726 36.049 36.049 0 0 1-.312 2.978.716.716 0 0 1-.722.617l.021-.021zm.252-8.51a.715.715 0 0 1-.719-.644 32.897 32.897 0 0 0-.36-2.869.703.703 0 0 1 .21-.74.727.727 0 0 1 .769-.118.709.709 0 0 1 .427.642c.155.99.273 1.99.36 2.971a.712.712 0 0 1-.651.755l-.036.004zm-1.574-8.391a.718.718 0 0 1-.683-.507 46.43 46.43 0 0 0-.892-2.762.701.701 0 0 1 .058-.775.724.724 0 0 1 .743-.258c.277.068.488.29.536.568.338.944.647 1.9.92 2.837a.701.701 0 0 1-.12.611.722.722 0 0 1-.562.282v.004zm-3.063-7.985a.72.72 0 0 1-.643-.404 70.685 70.685 0 0 0-1.315-2.602.701.701 0 0 1-.057-.774.721.721 0 0 1 1.31.122c.475.882.928 1.772 1.349 2.662a.705.705 0 0 1-.36.93.705.705 0 0 1-.305.074l.021-.008zm-4.183-7.477a.721.721 0 0 1-.6-.326c-.514-.805-1.079-1.624-1.625-2.436a.703.703 0 0 1 .24-.894.726.726 0 0 1 .932.1c.571.826 1.128 1.66 1.653 2.482a.703.703 0 0 1-.22.968.726.726 0 0 1-.402.113l.022-.007z" fill="#F948A9"/>
      </g>
    </g>
  </g>
</svg>
